<mxfile host="65bd71144e">
    <diagram id="4hPjWtLpYcAwQY2Knel_" name="Page-1">
        <mxGraphModel dx="850" dy="1517" grid="1" gridSize="10" guides="1" tooltips="1" connect="1" arrows="1" fold="1" page="1" pageScale="1" pageWidth="827" pageHeight="1169" math="0" shadow="0">
            <root>
                <mxCell id="0"/>
                <mxCell id="1" parent="0"/>
                <mxCell id="2" value="" style="shape=image;verticalLabelPosition=bottom;labelBackgroundColor=default;verticalAlign=top;aspect=fixed;imageAspect=0;image=data:image/svg+xml,PHN2ZyB4bWxucz0iaHR0cDovL3d3dy53My5vcmcvMjAwMC9zdmciIHZpZXdCb3g9IjAgMCA1OS41MjkgMTUwLjIzOSI+PHBhdGggc3R5bGU9ImZpbGw6IzAwNGUyOSIgZD0iTTU5LjUyOSwxNS41MzdWMTAuNzU1aDBhMS4xOCwxLjE4LDAsMCwxLS41NC0uMTQzVjE1LjY4YTEuMTc3LDEuMTc3LDAsMCwxLC41NC0uMTQzWiIvPjxwYXRoIHN0eWxlPSJmaWxsOiMwMDRlMjkiIGQ9Ik01OS41MjksMjIuNzM4VjE3Ljk1NmgwYTEuMTgsMS4xOCwwLDAsMS0uNTQtLjE0M3Y1LjA2OGExLjE2NSwxLjE2NSwwLDAsMSwuNTQtLjE0M1oiLz48cGF0aCBzdHlsZT0iZmlsbDojMDA0ZTI5IiBkPSJNNTkuNTI5LDI5LjkzOHYtNC43OGgwYTEuMTgsMS4xOCwwLDAsMS0uNTQtLjE0M3Y1LjA2NmExLjE3NywxLjE3NywwLDAsMSwuNTQtLjE0M1oiLz48cGF0aCBzdHlsZT0iZmlsbDojMDA0ZTI5IiBkPSJNNTkuNTI5LDM3LjEzN3YtNC43OGgwYTEuMTgsMS4xOCwwLDAsMS0uNTQtLjE0M1YzNy4yOGExLjE3NywxLjE3NywwLDAsMSwuNTQtLjE0M1oiLz48cGF0aCBzdHlsZT0iZmlsbDojMDA0ZTI5IiBkPSJNNTkuNTI5LDQ0LjMzNnYtNC43OGgwYTEuMTgsMS4xOCwwLDAsMS0uNTQtLjE0M3Y1LjA2NmExLjE3NywxLjE3NywwLDAsMSwuNTQtLjE0M1oiLz48cGF0aCBzdHlsZT0iZmlsbDojMDA0ZTI5IiBkPSJNNTkuNTI5LDUxLjUzNnYtNC43OGgwYTEuMTgxLDEuMTgxLDAsMCwxLS41NC0uMTQ0djUuMDY3YTEuMTc3LDEuMTc3LDAsMCwxLC41NC0uMTQzWiIvPjxwYXRoIHN0eWxlPSJmaWxsOiMwMDRlMjkiIGQ9Ik01OS41MjksNTguNzM2VjUzLjk1NWgwYTEuMTgsMS4xOCwwLDAsMS0uNTQtLjE0M3Y1LjA2N2ExLjE3NywxLjE3NywwLDAsMSwuNTQtLjE0M1oiLz48cGF0aCBzdHlsZT0iZmlsbDojMDA0ZTI5IiBkPSJNNTkuNTI5LDY1LjkzNlY2MS4xNTVoMGExLjE4LDEuMTgsMCwwLDEtLjU0LS4xNDN2NS4wNjdhMS4xNzcsMS4xNzcsMCwwLDEsLjU0LS4xNDNaIi8+PHBhdGggc3R5bGU9ImZpbGw6IzAwNGUyOSIgZD0iTTU5LjUyOSw3My4xMzdWNjguMzU2aDBhMS4xOCwxLjE4LDAsMCwxLS41NC0uMTQzVjczLjI4YTEuMTc3LDEuMTc3LDAsMCwxLC41NC0uMTQzWiIvPjxwYXRoIHN0eWxlPSJmaWxsOiMwMDRlMjkiIGQ9Ik01OS41MjksODAuMzM3Vjc1LjU1NmgwYTEuMTgsMS4xOCwwLDAsMS0uNTQtLjE0M3Y1LjA2NmExLjE3NywxLjE3NywwLDAsMSwuNTQtLjE0M2gwIi8+PHBhdGggc3R5bGU9ImZpbGw6IzAwNGUyOSIgZD0iTTU5LjUyOSw4Ny41MzZ2LTQuNzhoMGExLjE4MSwxLjE4MSwwLDAsMS0uNTQtLjE0NHY1LjA2N2ExLjE3NywxLjE3NywwLDAsMSwuNTQtLjE0M1oiLz48cGF0aCBzdHlsZT0iZmlsbDojMDA0ZTI5IiBkPSJNNTkuNTI5LDk0LjczNlY4OS45NTVoMGExLjE4LDEuMTgsMCwwLDEtLjU0LS4xNDN2NS4wNjdhMS4xNzcsMS4xNzcsMCwwLDEsLjU0LS4xNDNaIi8+PHBhdGggc3R5bGU9ImZpbGw6IzAwNGUyOSIgZD0iTTU5LjUyOSwxMDEuOTM2Vjk3LjE1NWgwYTEuMTgsMS4xOCwwLDAsMS0uNTQtLjE0M3Y1LjA2N2ExLjE3NywxLjE3NywwLDAsMSwuNTQtLjE0M1oiLz48cGF0aCBzdHlsZT0iZmlsbDojMDA0ZTI5IiBkPSJNNTkuNTI5LDEwOS4xMzd2LTQuNzgxaDBhMS4xOCwxLjE4LDAsMCwxLS41NC0uMTQzdjUuMDY3YTEuMTc3LDEuMTc3LDAsMCwxLC41NC0uMTQzWiIvPjxwYXRoIHN0eWxlPSJmaWxsOiMwMDRlMjkiIGQ9Ik01OS41MjksMTE2LjMzN3YtNC43ODFoMGExLjE4LDEuMTgsMCwwLDEtLjU0LS4xNDN2NS4wNjZhMS4xNzYsMS4xNzYsMCwwLDEsLjU0LS4xNDJaIi8+PHBhdGggc3R5bGU9ImZpbGw6IzAwNGUyOSIgZD0iTTU5LjUyOSwxMjMuNTM3di00Ljc4MWgwYTEuMTY5LDEuMTY5LDAsMCwxLS41NC0uMTQ0djUuMDY3YTEuMTc2LDEuMTc2LDAsMCwxLC41NC0uMTQyaDAiLz48cGF0aCBzdHlsZT0iZmlsbDojMDA0ZTI5IiBkPSJNNTkuNTI5LDEzMC43MzZ2LTQuNzgxaDBhMS4xOCwxLjE4LDAsMCwxLS41NC0uMTQzdjUuMDY3YTEuMTc3LDEuMTc3LDAsMCwxLC41NC0uMTQzWiIvPjxwYXRoIHN0eWxlPSJmaWxsOiMwMDRlMjkiIGQ9Ik01OS41MjksMTM3LjkzNnYtNC43ODFoMGExLjE4LDEuMTgsMCwwLDEtLjU0LS4xNDN2NS4wNjdhMS4xNzcsMS4xNzcsMCwwLDEsLjU0LS4xNDNaIi8+PHBhdGggc3R5bGU9ImZpbGw6IzAwNGUyOSIgZD0iTTU5LjUyOSwxNDUuMTM2di00Ljc4aDBhMS4xOCwxLjE4LDAsMCwxLS41NC0uMTQzdjUuMDY1YTEuMTc2LDEuMTc2LDAsMCwxLC41NC0uMTQyWiIvPjxwYXRoIHN0eWxlPSJmaWxsOiMwMDRlMjkiIGQ9Ik01OS41MjksMTQ3LjU1NWgwYTEuMTgsMS4xOCwwLDAsMS0uNTQtLjE0M3YxLjU3N2EuNzA5LjcwOSwwLDAsMS0uNzA5LjcwOUgzOC4wMzJhMS4xNzQsMS4xNzQsMCwwLDEsLjE0My41NEg1OC4zOTRhMS4xMzQsMS4xMzQsMCwwLDAsMS4xMzQtMS4xMzV2LTEuNTQ5WiIvPjxwYXRoIHN0eWxlPSJmaWxsOiMwMDRlMjkiIGQ9Ik0yMy42MzEsMTQ5LjdhMS4xNzgsMS4xNzgsMCwwLDEsLjE0My41NDFoNC43OGExLjE4MywxLjE4MywwLDAsMSwuMTQyLS41NDFaIi8+PHBhdGggc3R5bGU9ImZpbGw6IzAwNGUyOSIgZD0iTTMwLjgzMSwxNDkuN2ExLjE3OCwxLjE3OCwwLDAsMSwuMTQzLjU0MWg0Ljc4MmExLjE4MywxLjE4MywwLDAsMSwuMTQyLS41NDFaIi8+PHBhdGggc3R5bGU9ImZpbGw6IzAwNGUyOSIgZD0iTTU5LjIsNmwtLjQxNi40MTdhLjcwNy43MDcsMCwwLDEsLjIwOC41VjguNDhhMS4xNzcsMS4xNzcsMCwwLDEsLjU0LS4xNDNoMFY2LjgwNUExLjEyNiwxLjEyNiwwLDAsMCw1OS4yLDYiLz48cGF0aCBzdHlsZT0iZmlsbDojMDA0ZTI5IiBkPSJNMjEuNSwxNDkuN0gxLjI1MWEuNzA4LjcwOCwwLDAsMS0uNS0uMjA4bC0uNDE3LjQxN2ExLjEzNCwxLjEzNCwwLDAsMCwuOC4zMzJIMjEuMzU1YTEuMTc4LDEuMTc4LDAsMCwxLC4xNDMtLjU0MSIvPjxwYXRoIHN0eWxlPSJmaWxsOiMwMDY4MzciIGQ9Ik0uNTQyLDYuOTIxVjguNDc5YTEuMiwxLjIsMCwwLDEsLjY3LDEuMDY3LDEuMiwxLjIsMCwwLDEtLjY3LDEuMDY2djUuMDY5YTEuMTgzLDEuMTgzLDAsMCwxLDAsMi4xMzJ2NS4wNjhhMS4yLDEuMiwwLDAsMSwuNjcsMS4wNjYsMS4yLDEuMiwwLDAsMS0uNjcsMS4wNjhWMzAuMDhhMS4yLDEuMiwwLDAsMSwuNjcsMS4wNjcsMS4yLDEuMiwwLDAsMS0uNjcsMS4wNjd2NS4wNjVhMS4yLDEuMiwwLDAsMSwuNjcsMS4wNjgsMS4yLDEuMiwwLDAsMS0uNjcsMS4wNjZ2NS4wNjZhMS4yLDEuMiwwLDAsMSwuNjcsMS4wNjgsMS4yLDEuMiwwLDAsMS0uNjcsMS4wNjZWNTEuNjhhMS4yLDEuMiwwLDAsMSwuNjcsMS4wNjYsMS4yLDEuMiwwLDAsMS0uNjcsMS4wNjdWNTguODhhMS4yLDEuMiwwLDAsMSwuNjcsMS4wNjYsMS4yMDYsMS4yMDYsMCwwLDEtLjY3LDEuMDY4VjY2LjA4YTEuMiwxLjIsMCwwLDEsLjY3LDEuMDY2LDEuMiwxLjIsMCwwLDEtLjY3LDEuMDY3djUuMDY2YTEuMiwxLjIsMCwwLDEsLjY3LDEuMDY4LDEuMiwxLjIsMCwwLDEtLjY3LDEuMDY2djUuMDY2YTEuMiwxLjIsMCwwLDEsLjY3LDEuMDY4LDEuMiwxLjIsMCwwLDEtLjY3LDEuMDY2Vjg3LjY4YTEuMiwxLjIsMCwwLDEsLjY3LDEuMDY2LDEuMiwxLjIsMCwwLDEtLjY3LDEuMDY3Vjk0Ljg4YTEuMiwxLjIsMCwwLDEsLjY3LDEuMDY2LDEuMjA2LDEuMjA2LDAsMCwxLS42NywxLjA2OHY1LjA2NmExLjIsMS4yLDAsMCwxLC42NywxLjA2NiwxLjIsMS4yLDAsMCwxLS42NywxLjA2N3Y1LjA2NmExLjIsMS4yLDAsMCwxLC42NywxLjA2OCwxLjIsMS4yLDAsMCwxLS42NywxLjA2NnY1LjA2NmExLjIsMS4yLDAsMCwxLC42NywxLjA2OCwxLjIsMS4yLDAsMCwxLS42NywxLjA2NnY1LjA2N2ExLjIsMS4yLDAsMCwxLC42NywxLjA2NiwxLjIsMS4yLDAsMCwxLS42NywxLjA2N3Y1LjA2N2ExLjIsMS4yLDAsMCwxLC42NywxLjA2NiwxLjIsMS4yLDAsMCwxLS42NywxLjA2OHY1LjA2NmExLjIsMS4yLDAsMCwxLC42NywxLjA2NiwxLjIsMS4yLDAsMCwxLS42NywxLjA2N3Y1LjA2NWExLjIsMS4yLDAsMCwxLC42NywxLjA2OCwxLjIsMS4yLDAsMCwxLS42NywxLjA2NnYxLjU3N2EuNzA4LjcwOCwwLDAsMCwuNzA5LjcwOEgyMS41YTEuMTg1LDEuMTg1LDAsMCwxLDIuMTM0LDBIMjguN2ExLjE4NSwxLjE4NSwwLDAsMSwyLjEzNCwwSDM1LjlhMS4xODUsMS4xODUsMCwwLDEsMi4xMzQsMEg1OC4yNzlhLjcwOC43MDgsMCwwLDAsLjcwOC0uNzA4di0xLjU3N2ExLjE4NSwxLjE4NSwwLDAsMSwwLTIuMTM0di01LjA2NGExLjE4NSwxLjE4NSwwLDAsMSwwLTIuMTM0di01LjA2NmExLjE4NSwxLjE4NSwwLDAsMSwwLTIuMTM0di01LjA2N2ExLjE4NSwxLjE4NSwwLDAsMSwwLTIuMTMzdi01LjA2N2ExLjE4NSwxLjE4NSwwLDAsMSwwLTIuMTM0di01LjA2NWExLjE4NSwxLjE4NSwwLDAsMSwwLTIuMTM0di01LjA2NmExLjE4NSwxLjE4NSwwLDAsMSwwLTIuMTM0Vjk3LjAxNGExLjE4NSwxLjE4NSwwLDAsMSwwLTIuMTM0Vjg5LjgxM2ExLjE4NSwxLjE4NSwwLDAsMSwwLTIuMTMzVjgyLjYxM2ExLjE4NSwxLjE4NSwwLDAsMSwwLTIuMTM0Vjc1LjQxNGExLjE4NSwxLjE4NSwwLDAsMSwwLTIuMTM0VjY4LjIxNGExLjE4NSwxLjE4NSwwLDAsMSwwLTIuMTM0VjYxLjAxNGExLjE4NSwxLjE4NSwwLDAsMSwwLTIuMTM0VjUzLjgxM2ExLjE4NSwxLjE4NSwwLDAsMSwwLTIuMTMzVjQ2LjYxM2ExLjE4NSwxLjE4NSwwLDAsMSwwLTIuMTMzVjM5LjQxNGExLjE4NSwxLjE4NSwwLDAsMSwwLTIuMTM0VjMyLjIxNGExLjE4NSwxLjE4NSwwLDAsMSwwLTIuMTM0VjI1LjAxNWExLjE4NSwxLjE4NSwwLDAsMSwwLTIuMTM0VjE3LjgxM2ExLjE4NCwxLjE4NCwwLDAsMSwwLTIuMTMyVjEwLjYxMmExLjE4NSwxLjE4NSwwLDAsMSwwLTIuMTMzVjYuOTIxYS43MDguNzA4LDAsMCwwLS43MDgtLjcwOUgxLjI1MWEuNzA4LjcwOCwwLDAsMC0uNzA5LjcwOU00LjU2NSwxNDcuNTQyYTEuMiwxLjIsMCwxLDEsMS4yLTEuMiwxLjIsMS4yLDAsMCwxLTEuMiwxLjJtMS4yLTguNGExLjIsMS4yLDAsMSwxLTEuMi0xLjIsMS4yLDEuMiwwLDAsMSwxLjIsMS4ybTAtNy4yYTEuMiwxLjIsMCwxLDEtMS4yLTEuMiwxLjIsMS4yLDAsMCwxLDEuMiwxLjJtMC03LjJhMS4yLDEuMiwwLDEsMS0xLjItMS4yLDEuMiwxLjIsMCwwLDEsMS4yLDEuMm0wLTcuMmExLjIsMS4yLDAsMSwxLTEuMi0xLjIsMS4yLDEuMiwwLDAsMSwxLjIsMS4ybTAtNy4yYTEuMiwxLjIsMCwxLDEtMS4yLTEuMiwxLjIsMS4yLDAsMCwxLDEuMiwxLjJtMC03LjJhMS4yLDEuMiwwLDEsMS0xLjItMS4yLDEuMiwxLjIsMCwwLDEsMS4yLDEuMm0wLTcuMmExLjIsMS4yLDAsMSwxLTEuMi0xLjIsMS4yLDEuMiwwLDAsMSwxLjIsMS4ybTAtNy4yYTEuMiwxLjIsMCwxLDEtMS4yLTEuMiwxLjIsMS4yLDAsMCwxLDEuMiwxLjJtMC03LjJhMS4yLDEuMiwwLDEsMS0xLjItMS4yLDEuMiwxLjIsMCwwLDEsMS4yLDEuMm0wLTcuMmExLjIsMS4yLDAsMSwxLTEuMi0xLjIsMS4yLDEuMiwwLDAsMSwxLjIsMS4ybTAtNy4yYTEuMiwxLjIsMCwxLDEtMS4yLTEuMiwxLjIsMS4yLDAsMCwxLDEuMiwxLjJtMC03LjJhMS4yLDEuMiwwLDEsMS0xLjItMS4yLDEuMiwxLjIsMCwwLDEsMS4yLDEuMm0wLTcuMmExLjIsMS4yLDAsMSwxLTEuMi0xLjIsMS4yLDEuMiwwLDAsMSwxLjIsMS4ybTAtNy4yYTEuMiwxLjIsMCwxLDEtMS4yLTEuMiwxLjIsMS4yLDAsMCwxLDEuMiwxLjJtMC03LjJhMS4yLDEuMiwwLDEsMS0xLjItMS4yLDEuMiwxLjIsMCwwLDEsMS4yLDEuMm0wLTcuMmExLjIsMS4yLDAsMSwxLTEuMi0xLjIsMS4yLDEuMiwwLDAsMSwxLjIsMS4ybTAtNy4yYTEuMiwxLjIsMCwxLDEtMS4yLTEuMiwxLjIsMS4yLDAsMCwxLDEuMiwxLjJtMC03LjJhMS4yLDEuMiwwLDEsMS0xLjItMS4yLDEuMiwxLjIsMCwwLDEsMS4yLDEuMm0wLTcuMmExLjIsMS4yLDAsMSwxLTEuMi0xLjIsMS4yLDEuMiwwLDAsMSwxLjIsMS4ybTcuODYsMTM3LjRhMi41MiwyLjUyLDAsMSwxLDIuNTE5LTIuNTE5LDIuNTIyLDIuNTIyLDAsMCwxLTIuNTE5LDIuNTE5bTAtMTMyLjk1YTIuNTE5LDIuNTE5LDAsMSwxLDIuNTE5LTIuNTJBMi41MjIsMi41MjIsMCwwLDEsMTMuNjIyLDE0TTIyLjU2NSwxNDcuNTRhMS4yLDEuMiwwLDEsMSwxLjItMS4yLDEuMiwxLjIsMCwwLDEtMS4yLDEuMm03LjIsMGExLjIsMS4yLDAsMSwxLDEuMi0xLjIsMS4yLDEuMiwwLDAsMS0xLjIsMS4ybTI0LTEuMTk1YTEuMiwxLjIsMCwxLDEsMS4yLDEuMiwxLjIsMS4yLDAsMCwxLTEuMi0xLjJtMC03LjJhMS4yLDEuMiwwLDEsMSwxLjIsMS4yLDEuMiwxLjIsMCwwLDEtMS4yLTEuMm0wLTcuMmExLjIsMS4yLDAsMSwxLDEuMiwxLjIsMS4yLDEuMiwwLDAsMS0xLjItMS4ybTAtNy4yYTEuMiwxLjIsMCwxLDEsMS4yLDEuMiwxLjIsMS4yLDAsMCwxLTEuMi0xLjJtMC03LjJhMS4yLDEuMiwwLDEsMSwxLjIsMS4yLDEuMiwxLjIsMCwwLDEtMS4yLTEuMm0wLTcuMmExLjIsMS4yLDAsMSwxLDEuMiwxLjIsMS4yLDEuMiwwLDAsMS0xLjItMS4ybTAtNy4yYTEuMiwxLjIsMCwxLDEsMS4yLDEuMiwxLjIsMS4yLDAsMCwxLTEuMi0xLjJtMC03LjJhMS4yLDEuMiwwLDEsMSwxLjIsMS4yLDEuMiwxLjIsMCwwLDEtMS4yLTEuMm0wLTcuMmExLjIsMS4yLDAsMSwxLDEuMiwxLjIsMS4yLDEuMiwwLDAsMS0xLjItMS4ybTAtNy4yYTEuMiwxLjIsMCwxLDEsMS4yLDEuMiwxLjIsMS4yLDAsMCwxLTEuMi0xLjJtMC03LjJhMS4yLDEuMiwwLDEsMSwxLjIsMS4yLDEuMiwxLjIsMCwwLDEtMS4yLTEuMm0wLTcuMmExLjIsMS4yLDAsMSwxLDEuMiwxLjIsMS4yLDEuMiwwLDAsMS0xLjItMS4ybTAtNy4yYTEuMiwxLjIsMCwxLDEsMS4yLDEuMiwxLjIsMS4yLDAsMCwxLTEuMi0xLjJtMC03LjJhMS4yLDEuMiwwLDEsMSwxLjIsMS4yLDEuMiwxLjIsMCwwLDEtMS4yLTEuMm0wLTcuMmExLjIsMS4yLDAsMSwxLDEuMiwxLjIsMS4yLDEuMiwwLDAsMS0xLjItMS4ybTAtNy4yYTEuMiwxLjIsMCwxLDEsMS4yLDEuMiwxLjIsMS4yLDAsMCwxLTEuMi0xLjJtMC03LjJhMS4yLDEuMiwwLDEsMSwxLjIsMS4yLDEuMiwxLjIsMCwwLDEtMS4yLTEuMm0wLTcuMmExLjIsMS4yLDAsMSwxLDEuMiwxLjIsMS4yLDEuMiwwLDAsMS0xLjItMS4ybTAtNy4yYTEuMiwxLjIsMCwxLDEsMS4yLDEuMiwxLjIsMS4yLDAsMCwxLTEuMi0xLjJtMC03LjJhMS4yLDEuMiwwLDEsMSwxLjIsMS4yLDEuMiwxLjIsMCwwLDEtMS4yLTEuMk0zNi45NjUsMTQ3LjU0YTEuMiwxLjIsMCwxLDEsMS4yLTEuMiwxLjIsMS4yLDAsMCwxLTEuMiwxLjJtOC45NDMtLjU5MWEyLjUyLDIuNTIsMCwxLDEsMi41MTktMi41MTksMi41MjIsMi41MjIsMCwwLDEtMi41MTksMi41MTltMC0xMzIuOTVhMi41MTksMi41MTksMCwxLDEsMi41MTktMi41MkEyLjUyMiwyLjUyMiwwLDAsMSw0NS45MDgsMTQiLz48cGF0aCBzdHlsZT0iZmlsbDojMzM4NjVmIiBkPSJNNTguNCw1LjY3MUgxLjEzNEExLjEzNCwxLjEzNCwwLDAsMCwwLDYuODA1VjguMzM2SDBhMS4xNjIsMS4xNjIsMCwwLDEsLjU0LjE0NFY2LjkyMWEuNzA5LjcwOSwwLDAsMSwuNzA5LS43MDlINTguMjc5YS43LjcsMCwwLDEsLjUuMjA4TDU5LjIsNmExLjEzMSwxLjEzMSwwLDAsMC0uOC0uMzMyIi8+PHBhdGggc3R5bGU9ImZpbGw6IzMzODY1ZiIgZD0iTTAsMTcuOTU2djQuNzgySDBhMS4xNTgsMS4xNTgsMCwwLDEsLjU0LjE0M1YxNy44MTNhMS4xNywxLjE3LDAsMCwxLS41NC4xNDNaIi8+PHBhdGggc3R5bGU9ImZpbGw6IzMzODY1ZiIgZD0iTTAsMjUuMTU2djQuNzgxSDBhMS4xNywxLjE3LDAsMCwxLC41NC4xNDNWMjUuMDEzYTEuMTU4LDEuMTU4LDAsMCwxLS41NC4xNDNIMCIvPjxwYXRoIHN0eWxlPSJmaWxsOiMzMzg2NWYiIGQ9Ik0wLDMyLjM1NnY0Ljc4MUgwYTEuMTY5LDEuMTY5LDAsMCwxLC41NC4xNDJWMzIuMjE0YTEuMTY5LDEuMTY5LDAsMCwxLS41NC4xNDJaIi8+PHBhdGggc3R5bGU9ImZpbGw6IzMzODY1ZiIgZD0iTTAsMzkuNTU2djQuNzgxSDBhMS4xNywxLjE3LDAsMCwxLC41NC4xNDNWMzkuNDEzYTEuMTcsMS4xNywwLDAsMS0uNTQuMTQzWiIvPjxwYXRoIHN0eWxlPSJmaWxsOiMzMzg2NWYiIGQ9Ik0wLDQ2Ljc1NXY0Ljc4MUgwYTEuMTcsMS4xNywwLDAsMSwuNTQuMTQzVjQ2LjYxMmExLjE1OSwxLjE1OSwwLDAsMS0uNTQuMTQ0WiIvPjxwYXRoIHN0eWxlPSJmaWxsOiMzMzg2NWYiIGQ9Ik0wLDUzLjk1NXY0Ljc4MUgwYTEuMTcsMS4xNywwLDAsMSwuNTQuMTQzVjUzLjgxMmExLjE3LDEuMTcsMCwwLDEtLjU0LjE0M1oiLz48cGF0aCBzdHlsZT0iZmlsbDojMzM4NjVmIiBkPSJNMCw2MS4xNTV2NC43ODFIMGExLjE3LDEuMTcsMCwwLDEsLjU0LjE0M1Y2MS4wMTJhMS4xNywxLjE3LDAsMCwxLS41NC4xNDNaIi8+PHBhdGggc3R5bGU9ImZpbGw6IzMzODY1ZiIgZD0iTTAsNjguMzU1djQuNzgxSDBhMS4xNywxLjE3LDAsMCwxLC41NC4xNDNWNjguMjEyYTEuMTcsMS4xNywwLDAsMS0uNTQuMTQzWiIvPjxwYXRoIHN0eWxlPSJmaWxsOiMzMzg2NWYiIGQ9Ik0wLDc1LjU1NnY0Ljc4MUgwYTEuMTcsMS4xNywwLDAsMSwuNTQuMTQzVjc1LjQxM2ExLjE3LDEuMTcsMCwwLDEtLjU0LjE0M1oiLz48cGF0aCBzdHlsZT0iZmlsbDojMzM4NjVmIiBkPSJNMCw4Mi43NTV2NC43ODFIMGExLjE3LDEuMTcsMCwwLDEsLjU0LjE0M1Y4Mi42MTJhMS4xNTksMS4xNTksMCwwLDEtLjU0LjE0NFoiLz48cGF0aCBzdHlsZT0iZmlsbDojMzM4NjVmIiBkPSJNMCw4OS45NTV2NC43ODFIMGExLjE3LDEuMTcsMCwwLDEsLjU0LjE0M1Y4OS44MTJhMS4xNywxLjE3LDAsMCwxLS41NC4xNDNaIi8+PHBhdGggc3R5bGU9ImZpbGw6IzMzODY1ZiIgZD0iTTAsOTcuMTU1djQuNzgxSDBhMS4xNywxLjE3LDAsMCwxLC41NC4xNDNWOTcuMDEyYTEuMTcsMS4xNywwLDAsMS0uNTQuMTQzWiIvPjxwYXRoIHN0eWxlPSJmaWxsOiMzMzg2NWYiIGQ9Ik0wLDEwNC4zNTV2NC43ODFIMGExLjE3LDEuMTcsMCwwLDEsLjU0LjE0M3YtNS4wNjdhMS4xNywxLjE3LDAsMCwxLS41NC4xNDNaIi8+PHBhdGggc3R5bGU9ImZpbGw6IzMzODY1ZiIgZD0iTTAsMTExLjU1NnY0Ljc4MUgwYTEuMTcsMS4xNywwLDAsMSwuNTQuMTQzdi01LjA2N2ExLjE3LDEuMTcsMCwwLDEtLjU0LjE0M1oiLz48cGF0aCBzdHlsZT0iZmlsbDojMzM4NjVmIiBkPSJNMCwxMTguNzU1djQuNzgxSDBhMS4xNywxLjE3LDAsMCwxLC41NC4xNDN2LTUuMDY2YTEuMTcsMS4xNywwLDAsMS0uNTQuMTQzWiIvPjxwYXRoIHN0eWxlPSJmaWxsOiMzMzg2NWYiIGQ9Ik0wLDEyNS45NTV2NC43ODFIMGExLjE3LDEuMTcsMCwwLDEsLjU0LjE0M3YtNS4wNjdhMS4xNywxLjE3LDAsMCwxLS41NC4xNDNaIi8+PHBhdGggc3R5bGU9ImZpbGw6IzMzODY1ZiIgZD0iTTAsMTMzLjE1NXY0Ljc4MUgwYTEuMTcsMS4xNywwLDAsMSwuNTQuMTQzdi01LjA2N2ExLjE3LDEuMTcsMCwwLDEtLjU0LjE0M1oiLz48cGF0aCBzdHlsZT0iZmlsbDojMzM4NjVmIiBkPSJNMCwxNDAuMzU1djQuNzhIMGExLjE3LDEuMTcsMCwwLDEsLjU0LjE0M3YtNS4wNjZhMS4xNywxLjE3LDAsMCwxLS41NC4xNDNaIi8+PHBhdGggc3R5bGU9ImZpbGw6IzMzODY1ZiIgZD0iTTAsMTAuNzU1djQuNzgySDBhMS4xNTksMS4xNTksMCwwLDEsLjU0LjE0NFYxMC42MTJhMS4xNTgsMS4xNTgsMCwwLDEtLjU0LjE0M1oiLz48cGF0aCBzdHlsZT0iZmlsbDojMzM4NjVmIiBkPSJNLjMzMywxNDkuOTA2bC40MTYtLjQxN2EuNzA4LjcwOCwwLDAsMS0uMjA3LS41di0xLjU3NmExLjE3NywxLjE3NywwLDAsMS0uNTQxLjE0MlYxNDkuMWExLjEzNCwxLjEzNCwwLDAsMCwuMzMyLjgiLz48cGF0aCBzdHlsZT0iZmlsbDojOWE5MTZjIiBkPSJNNi41NCwxNi43NDVBMS45NzcsMS45NzcsMCwwLDAsNC41NjUsMTQuNzdIMHYuNzY2SDBhMS4yMSwxLjIxLDAsMCwxLDEuMjA5LDEuMjA5QTEuMjExLDEuMjExLDAsMCwxLDAsMTcuOTU1SDB2Ljc2NUg0LjU2NUExLjk3NywxLjk3NywwLDAsMCw2LjU0LDE2Ljc0NW0tMS45NzUsMS4yYTEuMiwxLjIsMCwxLDEsMS4yLTEuMiwxLjIsMS4yLDAsMCwxLTEuMiwxLjIiLz48cGF0aCBzdHlsZT0iZmlsbDojOWE5MTZjIiBkPSJNNi41NCwyMS45NzFIMHYuNzY2SDBhMS4yMTEsMS4yMTEsMCwwLDEsMS4yMDksMS4yMUExLjIxLDEuMjEsMCwwLDEsMCwyNS4xNTZIMHYuNzY1SDYuNTRaTTQuNTY1LDI1LjE0M2ExLjIsMS4yLDAsMSwxLDEuMi0xLjIsMS4yLDEuMiwwLDAsMS0xLjIsMS4yIi8+PHBhdGggc3R5bGU9ImZpbGw6IzlhOTE2YyIgZD0iTTYuNTQsMzEuMTQ2QTEuOTc4LDEuOTc4LDAsMCwwLDQuNTY1LDI5LjE3SDB2Ljc2NkgwYTEuMjEsMS4yMSwwLDAsMSwwLDIuNDJIMHYuNzY1SDQuNTY1QTEuOTc4LDEuOTc4LDAsMCwwLDYuNTQsMzEuMTQ2bS0xLjk3NSwxLjJhMS4yLDEuMiwwLDEsMSwxLjItMS4yLDEuMiwxLjIsMCwwLDEtMS4yLDEuMiIvPjxwYXRoIHN0eWxlPSJmaWxsOiM5YTkxNmMiIGQ9Ik02LjU0LDM4LjM0NWExLjk3OCwxLjk3OCwwLDAsMC0xLjk3NS0xLjk3Nkgwdi43NjZIMGExLjIxMSwxLjIxMSwwLDAsMSwxLjIwOSwxLjIxQTEuMjEsMS4yMSwwLDAsMSwwLDM5LjU1NEgwdi43NjVINC41NjVBMS45NzYsMS45NzYsMCwwLDAsNi41NCwzOC4zNDVtLTEuOTc1LDEuMmExLjIsMS4yLDAsMSwxLDEuMi0xLjIsMS4yLDEuMiwwLDAsMS0xLjIsMS4yIi8+PHBhdGggc3R5bGU9ImZpbGw6IzlhOTE2YyIgZD0iTTYuNTQsNDUuNTQ1YTEuOTc4LDEuOTc4LDAsMCwwLTEuOTc1LTEuOTc2SDB2Ljc2NkgwYTEuMjExLDEuMjExLDAsMCwxLDEuMjA5LDEuMjFBMS4yMSwxLjIxLDAsMCwxLDAsNDYuNzU0SDB2Ljc2NUg0LjU2NUExLjk3NiwxLjk3NiwwLDAsMCw2LjU0LDQ1LjU0NW0tMS45NzUsMS4yYTEuMiwxLjIsMCwxLDEsMS4yLTEuMiwxLjIsMS4yLDAsMCwxLTEuMiwxLjIiLz48cGF0aCBzdHlsZT0iZmlsbDojOWE5MTZjIiBkPSJNNi41NCw1Mi43NDVhMS45NzgsMS45NzgsMCwwLDAtMS45NzUtMS45NzZIMHYuNzY2SDBhMS4yMTEsMS4yMTEsMCwwLDEsMS4yMDksMS4yMUExLjIxLDEuMjEsMCwwLDEsMCw1My45NTRIMHYuNzY1SDQuNTY1QTEuOTc2LDEuOTc2LDAsMCwwLDYuNTQsNTIuNzQ1bS0xLjk3NSwxLjJhMS4yLDEuMiwwLDEsMSwxLjItMS4yLDEuMiwxLjIsMCwwLDEtMS4yLDEuMiIvPjxwYXRoIHN0eWxlPSJmaWxsOiM5YTkxNmMiIGQ9Ik02LjU0LDU3Ljk3SDB2Ljc2NkgwYTEuMjExLDEuMjExLDAsMCwxLDEuMjA5LDEuMjFBMS4yMSwxLjIxLDAsMCwxLDAsNjEuMTU1SDB2Ljc2NUg2LjU0Wk00LjU2NSw2MS4xNDJhMS4yLDEuMiwwLDEsMSwxLjItMS4yLDEuMiwxLjIsMCwwLDEtMS4yLDEuMiIvPjxwYXRoIHN0eWxlPSJmaWxsOiM5YTkxNmMiIGQ9Ik02LjU0LDY3LjE0NUExLjk3NywxLjk3NywwLDAsMCw0LjU2NSw2NS4xN0gwdi43NjZIMGExLjIxLDEuMjEsMCwwLDEsMS4yMDksMS4yMDlBMS4yMTEsMS4yMTEsMCwwLDEsMCw2OC4zNTVIMHYuNzY1SDQuNTY1QTEuOTc3LDEuOTc3LDAsMCwwLDYuNTQsNjcuMTQ1bS0xLjk3NSwxLjJhMS4yLDEuMiwwLDEsMSwxLjItMS4yLDEuMiwxLjIsMCwwLDEtMS4yLDEuMiIvPjxwYXRoIHN0eWxlPSJmaWxsOiM5YTkxNmMiIGQ9Ik02LjU0LDc0LjM0NUExLjk3NywxLjk3NywwLDAsMCw0LjU2NSw3Mi4zN0gwdi43NjZIMGExLjIxLDEuMjEsMCwwLDEsMS4yMDksMS4yMDlBMS4yMTEsMS4yMTEsMCwwLDEsMCw3NS41NTVIMHYuNzY1SDQuNTY1QTEuOTc3LDEuOTc3LDAsMCwwLDYuNTQsNzQuMzQ1bS0xLjk3NSwxLjJhMS4yLDEuMiwwLDEsMSwxLjItMS4yLDEuMiwxLjIsMCwwLDEtMS4yLDEuMiIvPjxwYXRoIHN0eWxlPSJmaWxsOiM5YTkxNmMiIGQ9Ik02LjU0LDgxLjU0NUExLjk3NywxLjk3NywwLDAsMCw0LjU2NSw3OS41N0gwdi43NjZIMGExLjIxLDEuMjEsMCwwLDEsMS4yMDksMS4yMDlBMS4yMTEsMS4yMTEsMCwwLDEsMCw4Mi43NTVIMHYuNzY1SDQuNTY1QTEuOTc3LDEuOTc3LDAsMCwwLDYuNTQsODEuNTQ1bS0xLjk3NSwxLjJhMS4yLDEuMiwwLDEsMSwxLjItMS4yLDEuMiwxLjIsMCwwLDEtMS4yLDEuMiIvPjxwYXRoIHN0eWxlPSJmaWxsOiM5YTkxNmMiIGQ9Ik02LjU0LDg4Ljc0NUExLjk3NywxLjk3NywwLDAsMCw0LjU2NSw4Ni43N0gwdi43NjZIMGExLjIxLDEuMjEsMCwwLDEsMS4yMDksMS4yMDlBMS4yMTEsMS4yMTEsMCwwLDEsMCw4OS45NTVIMHYuNzY1SDQuNTY1QTEuOTc3LDEuOTc3LDAsMCwwLDYuNTQsODguNzQ1bS0xLjk3NSwxLjJhMS4yLDEuMiwwLDEsMSwxLjItMS4yLDEuMiwxLjIsMCwwLDEtMS4yLDEuMiIvPjxwYXRoIHN0eWxlPSJmaWxsOiM5YTkxNmMiIGQ9Ik02LjU0LDkzLjk3SDB2Ljc2NkgwYTEuMjEsMS4yMSwwLDAsMSwwLDIuNDJIMHYuNzY1SDYuNTRaTTQuNTY1LDk3LjE0M2ExLjIsMS4yLDAsMSwxLDEuMi0xLjIsMS4yLDEuMiwwLDAsMS0xLjIsMS4yIi8+PHBhdGggc3R5bGU9ImZpbGw6IzlhOTE2YyIgZD0iTTYuNTQsMTAzLjE0NmExLjk3OCwxLjk3OCwwLDAsMC0xLjk3NS0xLjk3Nkgwdi43NjZIMGExLjIxMSwxLjIxMSwwLDAsMSwxLjIwOSwxLjIxQTEuMjEsMS4yMSwwLDAsMSwwLDEwNC4zNTVIMHYuNzY2SDQuNTY1YTEuOTc4LDEuOTc4LDAsMCwwLDEuOTc1LTEuOTc1bS0xLjk3NSwxLjJhMS4yLDEuMiwwLDEsMSwxLjItMS4yLDEuMiwxLjIsMCwwLDEtMS4yLDEuMiIvPjxwYXRoIHN0eWxlPSJmaWxsOiM5YTkxNmMiIGQ9Ik02LjU0LDExMC4zNDZhMS45NzgsMS45NzgsMCwwLDAtMS45NzUtMS45NzZIMHYuNzY2SDBhMS4yMTEsMS4yMTEsMCwwLDEsMS4yMDksMS4yMUExLjIxLDEuMjEsMCwwLDEsMCwxMTEuNTU1SDB2Ljc2NUg0LjU2NWExLjk3NiwxLjk3NiwwLDAsMCwxLjk3NS0xLjk3NG0tMS45NzUsMS4yYTEuMiwxLjIsMCwxLDEsMS4yLTEuMiwxLjIsMS4yLDAsMCwxLTEuMiwxLjIiLz48cGF0aCBzdHlsZT0iZmlsbDojOWE5MTZjIiBkPSJNNi41NCwxMTcuNTQ2YTEuOTc4LDEuOTc4LDAsMCwwLTEuOTc1LTEuOTc2SDB2Ljc2NkgwYTEuMjExLDEuMjExLDAsMCwxLDEuMjA5LDEuMjFBMS4yMSwxLjIxLDAsMCwxLDAsMTE4Ljc1NUgwdi43NjVINC41NjVhMS45NzYsMS45NzYsMCwwLDAsMS45NzUtMS45NzRtLTEuOTc1LDEuMmExLjIsMS4yLDAsMSwxLDEuMi0xLjIsMS4yLDEuMiwwLDAsMS0xLjIsMS4yIi8+PHBhdGggc3R5bGU9ImZpbGw6IzlhOTE2YyIgZD0iTTYuNTQsMTI0Ljc0NmExLjk3OCwxLjk3OCwwLDAsMC0xLjk3NS0xLjk3Nkgwdi43NjZIMGExLjIxMSwxLjIxMSwwLDAsMSwxLjIwOSwxLjIxQTEuMjEsMS4yMSwwLDAsMSwwLDEyNS45NTVIMHYuNzY1SDQuNTY1YTEuOTc2LDEuOTc2LDAsMCwwLDEuOTc1LTEuOTc0bS0xLjk3NSwxLjJhMS4yLDEuMiwwLDEsMSwxLjItMS4yLDEuMiwxLjIsMCwwLDEtMS4yLDEuMiIvPjxwYXRoIHN0eWxlPSJmaWxsOiM5YTkxNmMiIGQ9Ik02LjU0LDEyOS45NzFIMHYuNzY2SDBhMS4yMSwxLjIxLDAsMCwxLDEuMjA5LDEuMjA5QTEuMjExLDEuMjExLDAsMCwxLDAsMTMzLjE1Nkgwdi43NjVINi41NFptLTEuOTc1LDMuMTcyYTEuMiwxLjIsMCwxLDEsMS4yLTEuMiwxLjIsMS4yLDAsMCwxLTEuMiwxLjIiLz48cGF0aCBzdHlsZT0iZmlsbDojOWE5MTZjIiBkPSJNNi41NCwxMzkuMTQ2YTEuOTc3LDEuOTc3LDAsMCwwLTEuOTc1LTEuOTc1SDB2Ljc2NkgwYTEuMjEsMS4yMSwwLDAsMSwxLjIwOSwxLjIwOUExLjIxMSwxLjIxMSwwLDAsMSwwLDE0MC4zNTZIMHYuNzY1SDQuNTY1YTEuOTc3LDEuOTc3LDAsMCwwLDEuOTc1LTEuOTc1bS0xLjk3NSwxLjJhMS4yLDEuMiwwLDEsMSwxLjItMS4yLDEuMiwxLjIsMCwwLDEtMS4yLDEuMiIvPjxwYXRoIHN0eWxlPSJmaWxsOiM5YTkxNmMiIGQ9Ik02LjU0LDE0Ni4zNDVhMS45NzcsMS45NzcsMCwwLDAtMS45NzUtMS45NzVIMHYuNzY2SDBhMS4yMSwxLjIxLDAsMCwxLDEuMjA5LDEuMjA5QTEuMjExLDEuMjExLDAsMCwxLDAsMTQ3LjU1NUgwdi43NjVINC41NjVhMS45NzcsMS45NzcsMCwwLDAsMS45NzUtMS45NzVtLTEuOTc1LDEuMmExLjIsMS4yLDAsMSwxLDEuMi0xLjIsMS4yLDEuMiwwLDAsMS0xLjIsMS4yIi8+PHBhdGggc3R5bGU9ImZpbGw6IzlhOTE2YyIgZD0iTTU0Ljk2NSwxOC43MjFoNC41NjR2LS43NjZhMS4yMSwxLjIxLDAsMSwxLDAtMi40MTlWMTQuNzdINTQuOTY1YTEuOTc2LDEuOTc2LDAsMCwwLDAsMy45NTFtLTEuMi0xLjk3NmExLjIsMS4yLDAsMSwxLDEuMiwxLjIsMS4yLDEuMiwwLDAsMS0xLjItMS4yIi8+PHBhdGggc3R5bGU9ImZpbGw6IzlhOTE2YyIgZD0iTTUyLjk5LDI1LjkyMWg2LjUzOXYtLjc2NmExLjIxLDEuMjEsMCwxLDEsMC0yLjQxOVYyMS45N0g1Mi45OVptLjc3OC0xLjk3NWExLjIsMS4yLDAsMSwxLDEuMiwxLjIsMS4yLDEuMiwwLDAsMS0xLjItMS4yIi8+PHBhdGggc3R5bGU9ImZpbGw6IzlhOTE2YyIgZD0iTTU0Ljk2NSwzMy4xMmg0LjU2NHYtLjc2NWExLjIxLDEuMjEsMCwxLDEsMC0yLjQxOXYtLjc2N0g1NC45NjVhMS45NzYsMS45NzYsMCwwLDAsMCwzLjk1MW0tMS4yLTEuOTc1YTEuMiwxLjIsMCwxLDEsMS4yLDEuMiwxLjIsMS4yLDAsMCwxLTEuMi0xLjIiLz48cGF0aCBzdHlsZT0iZmlsbDojOWE5MTZjIiBkPSJNNTQuOTY1LDQwLjMyaDQuNTY0di0uNzY2YTEuMjEsMS4yMSwwLDEsMSwwLTIuNDE5di0uNzY2SDU0Ljk2NWExLjk3NiwxLjk3NiwwLDAsMCwwLDMuOTUxbS0xLjItMS45NzVhMS4yLDEuMiwwLDEsMSwxLjIsMS4yLDEuMiwxLjIsMCwwLDEtMS4yLTEuMiIvPjxwYXRoIHN0eWxlPSJmaWxsOiM5YTkxNmMiIGQ9Ik01NC45NjUsNDcuNTJoNC41NjR2LS43NjZhMS4yMSwxLjIxLDAsMSwxLDAtMi40MTl2LS43NjZINTQuOTY1YTEuOTc2LDEuOTc2LDAsMCwwLDAsMy45NTFtLTEuMi0xLjk3NWExLjIsMS4yLDAsMSwxLDEuMiwxLjIsMS4yLDEuMiwwLDAsMS0xLjItMS4yIi8+PHBhdGggc3R5bGU9ImZpbGw6IzlhOTE2YyIgZD0iTTU0Ljk2NSw1NC43Mmg0LjU2NHYtLjc2NmExLjIxLDEuMjEsMCwxLDEsMC0yLjQxOXYtLjc2Nkg1NC45NjVhMS45NzYsMS45NzYsMCwwLDAsMCwzLjk1MW0tMS4yLTEuOTc1YTEuMiwxLjIsMCwxLDEsMS4yLDEuMiwxLjIsMS4yLDAsMCwxLTEuMi0xLjIiLz48cGF0aCBzdHlsZT0iZmlsbDojOWE5MTZjIiBkPSJNNTIuOTksNjEuOTJoNi41Mzl2LS43NjZhMS4yMSwxLjIxLDAsMSwxLDAtMi40MTl2LS43NjZINTIuOTlabS43NzgtMS45NzVhMS4yLDEuMiwwLDEsMSwxLjIsMS4yLDEuMiwxLjIsMCwwLDEtMS4yLTEuMiIvPjxwYXRoIHN0eWxlPSJmaWxsOiM5YTkxNmMiIGQ9Ik01NC45NjUsNjkuMTIxaDQuNTY0di0uNzY2YTEuMjEsMS4yMSwwLDEsMSwwLTIuNDE5VjY1LjE3SDU0Ljk2NWExLjk3NiwxLjk3NiwwLDAsMCwwLDMuOTUxbS0xLjItMS45NzZhMS4yLDEuMiwwLDEsMSwxLjIsMS4yLDEuMiwxLjIsMCwwLDEtMS4yLTEuMiIvPjxwYXRoIHN0eWxlPSJmaWxsOiM5YTkxNmMiIGQ9Ik01NC45NjUsNzYuMzIxaDQuNTY0di0uNzY2YTEuMjEsMS4yMSwwLDEsMSwwLTIuNDE5VjcyLjM3SDU0Ljk2NWExLjk3NiwxLjk3NiwwLDAsMCwwLDMuOTUxbS0xLjItMS45NzZhMS4yLDEuMiwwLDEsMSwxLjIsMS4yLDEuMiwxLjIsMCwwLDEtMS4yLTEuMiIvPjxwYXRoIHN0eWxlPSJmaWxsOiM5YTkxNmMiIGQ9Ik01NC45NjUsODMuNTIxaDQuNTY0di0uNzY2YTEuMjEsMS4yMSwwLDEsMSwwLTIuNDE5di0uNzY3SDU0Ljk2NWExLjk3NiwxLjk3NiwwLDAsMCwwLDMuOTUybS0xLjItMS45NzZhMS4yLDEuMiwwLDEsMSwxLjIsMS4yLDEuMiwxLjIsMCwwLDEtMS4yLTEuMiIvPjxwYXRoIHN0eWxlPSJmaWxsOiM5YTkxNmMiIGQ9Ik01NC45NjUsOTAuNzIxaDQuNTY0di0uNzY3YTEuMjEsMS4yMSwwLDEsMSwwLTIuNDE5di0uNzY2SDU0Ljk2NWExLjk3NiwxLjk3NiwwLDAsMCwwLDMuOTUybS0xLjItMS45NzZhMS4yLDEuMiwwLDEsMSwxLjIsMS4yLDEuMiwxLjIsMCwwLDEtMS4yLTEuMiIvPjxwYXRoIHN0eWxlPSJmaWxsOiM5YTkxNmMiIGQ9Ik01Mi45OSw5Ny45Mmg2LjUzOXYtLjc2NmExLjIxLDEuMjEsMCwxLDEsMC0yLjQxOXYtLjc2Nkg1Mi45OVptLjc3OC0xLjk3NWExLjIsMS4yLDAsMSwxLDEuMiwxLjIsMS4yLDEuMiwwLDAsMS0xLjItMS4yIi8+PHBhdGggc3R5bGU9ImZpbGw6IzlhOTE2YyIgZD0iTTU0Ljk2NSwxMDUuMTJoNC41NjR2LS43NjZhMS4yMSwxLjIxLDAsMSwxLDAtMi40MTl2LS43NjZINTQuOTY1YTEuOTc2LDEuOTc2LDAsMCwwLDAsMy45NTFtLTEuMi0xLjk3NWExLjIsMS4yLDAsMSwxLDEuMiwxLjIsMS4yLDEuMiwwLDAsMS0xLjItMS4yIi8+PHBhdGggc3R5bGU9ImZpbGw6IzlhOTE2YyIgZD0iTTU0Ljk2NSwxMTIuMzIxaDQuNTY0di0uNzY2YTEuMjEsMS4yMSwwLDEsMSwwLTIuNDE5di0uNzY2SDU0Ljk2NWExLjk3NiwxLjk3NiwwLDAsMCwwLDMuOTUxbS0xLjItMS45NzVhMS4yLDEuMiwwLDEsMSwxLjIsMS4yLDEuMiwxLjIsMCwwLDEtMS4yLTEuMiIvPjxwYXRoIHN0eWxlPSJmaWxsOiM5YTkxNmMiIGQ9Ik01NC45NjUsMTE5LjUyMWg0LjU2NHYtLjc2NmExLjIxLDEuMjEsMCwxLDEsMC0yLjQxOXYtLjc2Nkg1NC45NjVhMS45NzYsMS45NzYsMCwwLDAsMCwzLjk1MW0tMS4yLTEuOTc1YTEuMiwxLjIsMCwxLDEsMS4yLDEuMiwxLjIsMS4yLDAsMCwxLTEuMi0xLjIiLz48cGF0aCBzdHlsZT0iZmlsbDojOWE5MTZjIiBkPSJNNTQuOTY1LDEyNi43MjFoNC41NjR2LS43NjZhMS4yMSwxLjIxLDAsMSwxLDAtMi40MTl2LS43NjZINTQuOTY1YTEuOTc2LDEuOTc2LDAsMCwwLDAsMy45NTFtLTEuMi0xLjk3NWExLjIsMS4yLDAsMSwxLDEuMiwxLjIsMS4yLDEuMiwwLDAsMS0xLjItMS4yIi8+PHBhdGggc3R5bGU9ImZpbGw6IzlhOTE2YyIgZD0iTTUyLjk5LDEzMy45MjFoNi41Mzl2LS43NjZhMS4yMSwxLjIxLDAsMSwxLDAtMi40MTl2LS43NjZINTIuOTlabS43NzgtMS45NzZhMS4yLDEuMiwwLDEsMSwxLjIsMS4yLDEuMiwxLjIsMCwwLDEtMS4yLTEuMiIvPjxwYXRoIHN0eWxlPSJmaWxsOiM5YTkxNmMiIGQ9Ik01NC45NjUsMTQxLjEyMWg0LjU2NHYtLjc2NmExLjIxLDEuMjEsMCwxLDEsMC0yLjQxOXYtLjc2Nkg1NC45NjVhMS45NzYsMS45NzYsMCwwLDAsMCwzLjk1MW0tMS4yLTEuOTc2YTEuMiwxLjIsMCwxLDEsMS4yLDEuMiwxLjIsMS4yLDAsMCwxLTEuMi0xLjIiLz48cGF0aCBzdHlsZT0iZmlsbDojOWE5MTZjIiBkPSJNNTQuOTY1LDE0OC4zMjFoNC41NjR2LS43NjZhMS4yMSwxLjIxLDAsMSwxLDAtMi40MTl2LS43NjdINTQuOTY1YTEuOTc2LDEuOTc2LDAsMCwwLDAsMy45NTJtLTEuMi0xLjk3NmExLjIsMS4yLDAsMSwxLDEuMiwxLjIsMS4yLDEuMiwwLDAsMS0xLjItMS4yIi8+PHBhdGggc3R5bGU9ImZpbGw6IzlhOTE2YyIgZD0iTTIyLjU2NSwxNDQuMzY4YTEuOTc5LDEuOTc5LDAsMCwwLTEuOTc2LDEuOTc1djMuOWguNzY2YTEuMjEsMS4yMSwwLDEsMSwyLjQyLDBoLjc2NXYtMy45YTEuOTc5LDEuOTc5LDAsMCwwLTEuOTc1LTEuOTc1bTEuMiwxLjk3NmExLjIsMS4yLDAsMSwxLTEuMi0xLjIsMS4yLDEuMiwwLDAsMSwxLjIsMS4yIi8+PHBhdGggc3R5bGU9ImZpbGw6IzlhOTE2YyIgZD0iTTI3Ljc4OCwxNDQuNDN2NS44MDloLjc2NmExLjIxLDEuMjEsMCwxLDEsMi40MTksMGguNzY1VjE0NC40M1ptMy4xNzMsMS45MTRhMS4yLDEuMiwwLDEsMS0xLjItMS4yLDEuMiwxLjIsMCwwLDEsMS4yLDEuMiIvPjxwYXRoIHN0eWxlPSJmaWxsOiM5YTkxNmMiIGQ9Ik0zNi45NjYsMTQ0LjM2OGExLjk3OSwxLjk3OSwwLDAsMC0xLjk3NiwxLjk3NXYzLjloLjc2NmExLjIxLDEuMjEsMCwxLDEsMi40MTksMGguNzY1di0zLjlhMS45NzcsMS45NzcsMCwwLDAtMS45NzQtMS45NzVtMS4yLDEuOTc2YTEuMiwxLjIsMCwxLDEtMS4yLTEuMiwxLjIsMS4yLDAsMCwxLDEuMiwxLjIiLz48cGF0aCBzdHlsZT0iZmlsbDojOWE5MTZjIiBkPSJNNTQuOTY1LDExLjUyaDQuNTY0di0uNzY2YTEuMjEsMS4yMSwwLDEsMSwwLTIuNDE5VjcuNTY5SDU0Ljk2NWExLjk3NiwxLjk3NiwwLDAsMCwwLDMuOTUxbS0xLjItMS45NzZhMS4yLDEuMiwwLDEsMSwxLjIsMS4yLDEuMiwxLjIsMCwwLDEtMS4yLTEuMiIvPjxwYXRoIHN0eWxlPSJmaWxsOiM5YTkxNmMiIGQ9Ik02LjU0LDkuNTQ0QTEuOTc3LDEuOTc3LDAsMCwwLDQuNTY1LDcuNTY5SDB2Ljc2NkgwQTEuMjEsMS4yMSwwLDAsMSwxLjIxMSw5LjU0NCwxLjIxMSwxLjIxMSwwLDAsMSwwLDEwLjc1NEgwdi43NjVINC41NjVBMS45NzcsMS45NzcsMCwwLDAsNi41NCw5LjU0NG0tMS45NzUsMS4yYTEuMiwxLjIsMCwxLDEsMS4yLTEuMiwxLjIsMS4yLDAsMCwxLTEuMiwxLjIiLz48cGF0aCBzdHlsZT0iZmlsbDojZmNlZTIxIiBkPSJNMTMuNjIyLDE0OC45NDlhNC41Miw0LjUyLDAsMSwxLDQuNTItNC41MTksNC41MjQsNC41MjQsMCwwLDEtNC41Miw0LjUxOW0wLTcuMDM5YTIuNTIsMi41MiwwLDEsMCwyLjUyLDIuNTIsMi41MjMsMi41MjMsMCwwLDAtMi41Mi0yLjUyIi8+PHBhdGggc3R5bGU9ImZpbGw6I2ZjZWUyMSIgZD0iTTQ1LjkwOCwxNDguOTQ5YTQuNTIsNC41MiwwLDEsMSw0LjUyLTQuNTE5LDQuNTI1LDQuNTI1LDAsMCwxLTQuNTIsNC41MTltMC03LjAzOWEyLjUyLDIuNTIsMCwxLDAsMi41MiwyLjUyLDIuNTIzLDIuNTIzLDAsMCwwLTIuNTItMi41MiIvPjxwYXRoIHN0eWxlPSJmaWxsOiNmY2VlMjEiIGQ9Ik0xMy42MjIsMTZhNC41Miw0LjUyLDAsMSwxLDQuNTItNC41MTlBNC41MjQsNC41MjQsMCwwLDEsMTMuNjIyLDE2bTAtNy4wMzlhMi41MTksMi41MTksMCwxLDAsMi41MiwyLjUyLDIuNTIyLDIuNTIyLDAsMCwwLTIuNTItMi41MiIvPjxwYXRoIHN0eWxlPSJmaWxsOiNmY2VlMjEiIGQ9Ik00NS45MDgsMTZhNC41Miw0LjUyLDAsMSwxLDQuNTItNC41MTlBNC41MjUsNC41MjUsMCwwLDEsNDUuOTA4LDE2bTAtNy4wMzlhMi41MTksMi41MTksMCwxLDAsMi41MiwyLjUyLDIuNTIyLDIuNTIyLDAsMCwwLTIuNTItMi41MiIvPjxyZWN0IHN0eWxlPSJmaWxsOiMzMDMxMmUiIGhlaWdodD0iMTkuOTc0IiB3aWR0aD0iMTkuOTc1IiB5PSI2Ny45NjciIHg9IjE5Ljc3OCIvPjxwYXRoIHN0eWxlPSJmaWxsOiMzNjNhNDQiIGQ9Ik0zOS4xMiwxNy4wMDlIMjAuNDExYS41NjcuNTY3LDAsMCwxLS41NjctLjU2N1YyLjUwNmEuNTY2LjU2NiwwLDAsMSwuNTY3LS41NjZIMzkuMTJhLjU2Ni41NjYsMCwwLDEsLjU2Ni41NjZWMTYuNDQyYS41NjcuNTY3LDAsMCwxLS41NjYuNTY3Ii8+PHBhdGggc3R5bGU9ImZpbGw6I2RiZGRkYSIgZD0iTTIxLjI2NCwwYS41NjUuNTY1LDAsMCwwLS41NDIuNGwtLjMxMiwxLjAzTDE5Ljg0MywyVjE2LjQ0MWEuNTY3LjU2NywwLDAsMCwuNTY3LjU2OGgzLjQ2YS4yODQuMjg0LDAsMCwwLC4yODQtLjI4M1YxNS45YS41NjkuNTY5LDAsMCwwLS4yOTUtLjVsLTEuOTI2LTEuMDUyYS41NjcuNTY3LDAsMCwxLS4yOTUtLjV2LS44MjdIMjIuOVYxMi4wN0gyNC44NHYuOTUzaDEuMTQ0djEuOTcxYS41NjcuNTY3LDAsMCwwLC41NjcuNTY4aC45MTlWMTQuNTM5aDQuNTl2MS4wMjNoLjkyYS41NjcuNTY3LDAsMCwwLC41NjYtLjU2OFYxMy4wMjNIMzQuNjlWMTIuMDdoMS45NDR2Ljk1M2gxLjI1OHYuODI3YS41NjcuNTY3LDAsMCwxLS4zLjVMMzUuNjcxLDE1LjRhLjU2OC41NjgsMCwwLDAtLjMuNXYuODI5YS4yODQuMjg0LDAsMCwwLC4yODQuMjgzaDMuNDU5YS41NjguNTY4LDAsMCwwLC41NjgtLjU2OFYybC0uNTY4LS41NjdMMzguODA5LjRhLjU2Ny41NjcsMCwwLDAtLjU0My0uNFoiLz48cGF0aCBzdHlsZT0iZmlsbDojZGJkZGRhIiBkPSJNMjAuNDY1LDIuODgzYTExLjU1NSwxMS41NTUsMCwwLDEtLjcyOS0xLjA1LDMuODMsMy44MywwLDAsMS0uMy0uNjEsNC4yNzUsNC4yNzUsMCwwLDEtLjE4NC0uNjQ0QS4zNC4zNCwwLDAsMSwxOS45MDguNGgwYTMuMDczLDMuMDczLDAsMCwwLC41MjMuOTYyLDEwLjk3MiwxMC45NzIsMCwwLDAsLjc5Ljg2NXYwYS41LjUsMCwxLDEtLjcxNS43LjUxNS41MTUsMCwwLDEtLjA0My0uMDUiLz48cGF0aCBzdHlsZT0iZmlsbDojZGJkZGRhIiBkPSJNMzguMzA4LDIuMjI5YTEwLjk2MywxMC45NjMsMCwwLDAsLjc5LS44NjRBMy4xLDMuMSwwLDAsMCwzOS42Mi40aDBhLjM0LjM0LDAsMCwxLC42NTUuMTc5LDQuMDQyLDQuMDQyLDAsMCwxLS4xODQuNjQzLDMuODI2LDMuODI2LDAsMCwxLS4zLjYxLDExLjU1NSwxMS41NTUsMCwwLDEtLjcyOSwxLjA1LjUuNSwwLDEsMS0uOC0uNi40NzIuNDcyLDAsMCwxLC4wNDEtLjA0OFoiLz48cGF0aCBzdHlsZT0iZmlsbDojZGJkZGRhIiBkPSJNMjYuNzgxLDEwNS45OGgtNy4zN2EuNTY3LjU2NywwLDAsMS0uNTY3LS41Njd2LTQuNTM1YS41NjcuNTY3LDAsMCwxLC41NjctLjU2N2g3LjM3YS41NjcuNTY3LDAsMCwxLC41NjcuNTY3djQuNTM1YS41NjcuNTY3LDAsMCwxLS41NjcuNTY3Ii8+PHJlY3Qgc3R5bGU9ImZpbGw6IzJhMmQyZSIgaGVpZ2h0PSI4LjUwNCIgd2lkdGg9IjUuNjY5IiB5PSI1NC4zIiB4PSIxNi4yMDIiLz48cmVjdCBzdHlsZT0iZmlsbDojMmEyZDJlIiBoZWlnaHQ9IjcuMDg3IiB3aWR0aD0iNy4wODciIHk9IjMxLjg1MyIgeD0iMzQuMjQiLz48cmVjdCBzdHlsZT0iZmlsbDojMmEyZDJlIiBoZWlnaHQ9IjcuMDg2IiB3aWR0aD0iNC4yNTIiIHk9IjE5LjU5MSIgeD0iNDQuNDY3Ii8+PHBhdGggc3R5bGU9ImZpbGw6I2NjYyIgZD0iTTE2LjA5MywzMi44MzZoNy4zN2EuNTY3LjU2NywwLDAsMSwuNTY3LjU2NnYxMC4yYS41NjcuNTY3LDAsMCwxLS41NjcuNTY4aC03LjM3YS41NjcuNTY3LDAsMCwxLS41NjctLjU2OFYzMy40YS41NjcuNTY3LDAsMCwxLC41NjctLjU2NiIvPjxwYXRoIHN0eWxlPSJmaWxsOiNmZmYiIGQ9Ik0xOS43NzgsMzMuNTQ0aDBhMy41NDQsMy41NDQsMCwwLDEsMy41NDQsMy41NDR2Mi44MzVhMy41NDQsMy41NDQsMCwwLDEtNy4wODcsMFYzNy4wODhhMy41NDQsMy41NDQsMCwwLDEsMy41NDMtMy41NDQiLz48cGF0aCBzdHlsZT0iZmlsbDojZmZmIiBkPSJNMTUuNTI2LDMzLjR2MS4wNjRhLjU2Ny41NjcsMCwwLDAsLjk2OC40TDE3LjU1OCwzMy44YS41NjYuNTY2LDAsMCwwLS40LS45NjdIMTYuMDkzYS41NjcuNTY3LDAsMCwwLS41NjcuNTY2Ii8+PHBhdGggc3R5bGU9ImZpbGw6I2ZmZiIgZD0iTTIzLjQ2MywzMi44MzZIMjIuNGEuNTY3LjU2NywwLDAsMC0uNC45NjhsMS4wNjUsMS4wNjRhLjU2Ni41NjYsMCwwLDAsLjk2Ny0uNFYzMy40YS41NjcuNTY3LDAsMCwwLS41NjYtLjU2NiIvPjxwYXRoIHN0eWxlPSJmaWxsOiNmZmYiIGQ9Ik0yNC4wMyw0My41NzdWNDIuNTEzYS41NjcuNTY3LDAsMCwwLS45NjgtLjRMMjIsNDMuMTc3YS41NjYuNTY2LDAsMCwwLC40Ljk2N2gxLjA2NmEuNTY3LjU2NywwLDAsMCwuNTY2LS41NjciLz48cGF0aCBzdHlsZT0iZmlsbDojZmZmIiBkPSJNMTYuMDkzLDQ0LjE0NWgxLjA2NGEuNTY3LjU2NywwLDAsMCwuNC0uOTY4bC0xLjA2NS0xLjA2NGEuNTY2LjU2NiwwLDAsMC0uOTY3LjR2MS4wNjVhLjU2Ny41NjcsMCwwLDAsLjU2Ny41NjciLz48cGF0aCBzdHlsZT0iZmlsbDojMmEyZDJlIiBkPSJNNDMuNzU3LDM4LjM3M1YzMi40MmEuNTY3LjU2NywwLDAsMSwuNTY3LS41NjdINDguODZhLjU2Ny41NjcsMCwwLDEsLjU2Ny41Njd2NS45NTNhLjU2Ny41NjcsMCwwLDEtLjU2Ny41NjdINDQuMzI0YS41NjcuNTY3LDAsMCwxLS41NjctLjU2NyIvPjxyZWN0IHN0eWxlPSJmaWxsOiNkYmRkZGEiIGhlaWdodD0iNC4yNTIiIHdpZHRoPSI1LjY3IiB5PSI0MC4xOTUiIHg9IjM0Ljk0OCIvPjxyZWN0IHN0eWxlPSJmaWxsOiNkYmRkZGEiIGhlaWdodD0iNS42NyIgd2lkdGg9IjIuODM1IiB5PSI0Ny45MzUiIHg9IjQwLjYxOCIvPjxyZWN0IHN0eWxlPSJmaWxsOiMyYTJkMmUiIGhlaWdodD0iMy42ODYiIHdpZHRoPSIyLjgzNSIgeT0iNDguOTI3IiB4PSI0MC42MTgiLz48cmVjdCBzdHlsZT0iZmlsbDojZGJkZGRhIiBoZWlnaHQ9IjQuMjUyIiB3aWR0aD0iNS42NyIgeT0iMjYuMjY5IiB4PSIzNC45NDgiLz48cmVjdCBzdHlsZT0iZmlsbDojOTU4ODYzIiBoZWlnaHQ9IjQuMjUyIiB3aWR0aD0iNC4yNTIiIHk9IjI2LjI2OSIgeD0iMzUuNjU3Ii8+PHJlY3Qgc3R5bGU9ImZpbGw6Izk1ODg2MyIgaGVpZ2h0PSI0LjI1MiIgd2lkdGg9IjQuMjUyIiB5PSI0MC4xOTUiIHg9IjM1LjY1NyIvPjxwYXRoIHN0eWxlPSJmaWxsOiM5YTkxNmMiIGQ9Ik00Ni44ODIsMTMxLjk0NWExLjIsMS4yLDAsMSwxLTEuMiwxLjIsMS4yLDEuMiwwLDAsMSwxLjItMS4yIi8+PHBhdGggc3R5bGU9ImZpbGw6IzlhOTE2YyIgZD0iTTEzLjQzNCwyNS4wMTNhMS4yLDEuMiwwLDEsMS0xLjIsMS4yLDEuMiwxLjIsMCwwLDEsMS4yLTEuMiIvPjxyZWN0IHN0eWxlPSJmaWxsOiNkYmRkZGEiIGhlaWdodD0iMS40MTgiIHdpZHRoPSIyLjgzNSIgeT0iMjUuNTk3IiB4PSIyMC40MTMiLz48cmVjdCBzdHlsZT0iZmlsbDojMmEyZDJlIiBoZWlnaHQ9IjEuNDE4IiB3aWR0aD0iMi4xMjYiIHk9IjI1LjU5NyIgeD0iMjAuNzY3Ii8+PHJlY3Qgc3R5bGU9ImZpbGw6I2RiZGRkYSIgaGVpZ2h0PSIyLjgzNCIgd2lkdGg9IjEuNDE3IiB5PSI2Mi4xMjgiIHg9IjQ3LjA2MSIvPjxyZWN0IHN0eWxlPSJmaWxsOiMyYTJkMmUiIGhlaWdodD0iMi4xMjciIHdpZHRoPSIxLjQxNyIgeT0iNjIuNDgxIiB4PSI0Ny4wNjEiLz48cmVjdCBzdHlsZT0iZmlsbDojZGJkZGRhIiBoZWlnaHQ9IjIuODM0IiB3aWR0aD0iMS40MTciIHk9IjYyLjEyOCIgeD0iNDcuMDYxIi8+PHJlY3Qgc3R5bGU9ImZpbGw6IzJhMmQyZSIgaGVpZ2h0PSIxLjQxNyIgd2lkdGg9IjQuMjUyIiB5PSI1NS40ODciIHg9IjQ1LjkzNCIvPjxyZWN0IHN0eWxlPSJmaWxsOiMyYTJkMmUiIGhlaWdodD0iMi4xMjciIHdpZHRoPSIxLjQxNyIgeT0iNjIuNDgxIiB4PSI0Ny4wNjEiLz48cmVjdCBzdHlsZT0iZmlsbDojZGJkZGRhIiBoZWlnaHQ9IjIuODM0IiB3aWR0aD0iMS40MTciIHk9IjYyLjEyOCIgeD0iNDQuMzUyIi8+PHJlY3Qgc3R5bGU9ImZpbGw6IzJhMmQyZSIgaGVpZ2h0PSIyLjEyNyIgd2lkdGg9IjEuNDE3IiB5PSI2Mi40ODEiIHg9IjQ0LjM1MiIvPjxyZWN0IHN0eWxlPSJmaWxsOiNkYmRkZGEiIGhlaWdodD0iMi44MzQiIHdpZHRoPSIxLjQxNyIgeT0iNjIuMTI4IiB4PSI0MS42NDMiLz48cmVjdCBzdHlsZT0iZmlsbDojOWE5MTZjIiBoZWlnaHQ9IjIuMTI3IiB3aWR0aD0iMS40MTciIHk9IjYyLjQ4MSIgeD0iNDEuNjQzIi8+PHJlY3Qgc3R5bGU9ImZpbGw6I2RiZGRkYSIgaGVpZ2h0PSIyLjEyNyIgd2lkdGg9IjEuMDYzIiB5PSI2Mi40ODEiIHg9IjMzLjEzIi8+PHJlY3Qgc3R5bGU9ImZpbGw6IzJhMmQyZSIgaGVpZ2h0PSIxLjQxOCIgd2lkdGg9IjEuMDYzIiB5PSI2Mi44MzYiIHg9IjMzLjEzIi8+PHJlY3Qgc3R5bGU9ImZpbGw6I2RiZGRkYSIgaGVpZ2h0PSIyLjEyNyIgd2lkdGg9IjEuMDYyIiB5PSI2Mi40ODEiIHg9IjMxLjA5OSIvPjxyZWN0IHN0eWxlPSJmaWxsOiMyYTJkMmUiIGhlaWdodD0iMS40MTgiIHdpZHRoPSIxLjA2MiIgeT0iNjIuODM2IiB4PSIzMS4wOTkiLz48cmVjdCBzdHlsZT0iZmlsbDojZGJkZGRhIiBoZWlnaHQ9IjIuMTI3IiB3aWR0aD0iMS4wNjMiIHk9IjYyLjQ4MSIgeD0iMjkuMDY3Ii8+PHJlY3Qgc3R5bGU9ImZpbGw6IzlhOTE2YyIgaGVpZ2h0PSIxLjQxOCIgd2lkdGg9IjEuMDYzIiB5PSI2Mi44MzYiIHg9IjI5LjA2NyIvPjxyZWN0IHN0eWxlPSJmaWxsOiNkYmRkZGEiIGhlaWdodD0iMi4xMjYiIHdpZHRoPSIxLjA2MiIgeT0iNDguOTA2IiB4PSI0Ni4wNjIiLz48cmVjdCBzdHlsZT0iZmlsbDojOWE5MTZjIiBoZWlnaHQ9IjEuNDE3IiB3aWR0aD0iMS4wNjIiIHk9IjQ5LjI2MSIgeD0iNDYuMDYyIi8+PHJlY3Qgc3R5bGU9ImZpbGw6I2RiZGRkYSIgaGVpZ2h0PSIyLjEyNyIgd2lkdGg9IjEuMDYyIiB5PSI2Mi40ODEiIHg9IjI3LjAzNSIvPjxyZWN0IHN0eWxlPSJmaWxsOiM5YTkxNmMiIGhlaWdodD0iMS40MTgiIHdpZHRoPSIxLjA2MiIgeT0iNjIuODM2IiB4PSIyNy4wMzUiLz48cmVjdCBzdHlsZT0iZmlsbDojZGJkZGRhIiBoZWlnaHQ9IjIuMTI2IiB3aWR0aD0iMS4wNjIiIHk9IjUwLjc3IiB4PSIxNi4xOCIvPjxyZWN0IHN0eWxlPSJmaWxsOiM5YTkxNmMiIGhlaWdodD0iMS40MTciIHdpZHRoPSIxLjA2MiIgeT0iNTEuMTI0IiB4PSIxNi4xOCIvPjxyZWN0IHN0eWxlPSJmaWxsOiNkYmRkZGEiIGhlaWdodD0iMi4xMjYiIHdpZHRoPSIxLjA2MyIgeT0iOTEuNjUzIiB4PSIzMS4xMyIvPjxyZWN0IHN0eWxlPSJmaWxsOiM5YTkxNmMiIGhlaWdodD0iMS40MTciIHdpZHRoPSIxLjA2MyIgeT0iOTIuMDA4IiB4PSIzMS4xMyIvPjxyZWN0IHN0eWxlPSJmaWxsOiNkYmRkZGEiIGhlaWdodD0iMi4xMjYiIHdpZHRoPSIxLjA2MiIgeT0iOTEuNjUzIiB4PSIyOS4wOTkiLz48cmVjdCBzdHlsZT0iZmlsbDojOWE5MTZjIiBoZWlnaHQ9IjEuNDE3IiB3aWR0aD0iMS4wNjIiIHk9IjkyLjAwOCIgeD0iMjkuMDk5Ii8+PHJlY3Qgc3R5bGU9ImZpbGw6I2RiZGRkYSIgaGVpZ2h0PSIyLjEyNiIgd2lkdGg9IjEuMDYyIiB5PSIxMDAuMzExIiB4PSIyOS4wOTkiLz48cmVjdCBzdHlsZT0iZmlsbDojOWE5MTZjIiBoZWlnaHQ9IjEuNDE4IiB3aWR0aD0iMS4wNjIiIHk9IjEwMC42NjUiIHg9IjI5LjA5OSIvPjxyZWN0IHN0eWxlPSJmaWxsOiNkYmRkZGEiIGhlaWdodD0iMi4xMjYiIHdpZHRoPSIxLjA2MiIgeT0iMTAzLjg1NCIgeD0iMTUuODI2Ii8+PHJlY3Qgc3R5bGU9ImZpbGw6IzlhOTE2YyIgaGVpZ2h0PSIxLjQxNyIgd2lkdGg9IjEuMDYyIiB5PSIxMDQuMjA5IiB4PSIxNS44MjYiLz48cmVjdCBzdHlsZT0iZmlsbDojZGJkZGRhIiBoZWlnaHQ9IjIuODM0IiB3aWR0aD0iMS40MTciIHk9IjYyLjEyOCIgeD0iMzcuNzg1Ii8+PHJlY3Qgc3R5bGU9ImZpbGw6IzlhOTE2YyIgaGVpZ2h0PSIyLjEyNyIgd2lkdGg9IjEuNDE3IiB5PSI2Mi40ODEiIHg9IjM3Ljc4NSIvPjxyZWN0IHN0eWxlPSJmaWxsOiNkYmRkZGEiIGhlaWdodD0iMi44MzQiIHdpZHRoPSIxLjQxNyIgeT0iNjIuMTI4IiB4PSIzNS4wNzYiLz48cmVjdCBzdHlsZT0iZmlsbDojOWE5MTZjIiBoZWlnaHQ9IjIuMTI3IiB3aWR0aD0iMS40MTciIHk9IjYyLjQ4MSIgeD0iMzUuMDc2Ii8+PHJlY3Qgc3R5bGU9ImZpbGw6I2RiZGRkYSIgaGVpZ2h0PSIxLjQxNyIgd2lkdGg9IjIuODM1IiB5PSIyMy4xMzQiIHg9IjIwLjQxMyIvPjxyZWN0IHN0eWxlPSJmaWxsOiMyYTJkMmUiIGhlaWdodD0iMS40MTciIHdpZHRoPSIyLjEyNiIgeT0iMjMuMTM0IiB4PSIyMC43NjciLz48cmVjdCBzdHlsZT0iZmlsbDojZGJkZGRhIiBoZWlnaHQ9IjEuNDE3IiB3aWR0aD0iMi44MzUiIHk9IjIzLjEzNCIgeD0iMzYuMzY2Ii8+PHJlY3Qgc3R5bGU9ImZpbGw6IzJhMmQyZSIgaGVpZ2h0PSIxLjQxNyIgd2lkdGg9IjIuMTI2IiB5PSIyMy4xMzQiIHg9IjM2LjcyIi8+PHJlY3Qgc3R5bGU9ImZpbGw6I2RiZGRkYSIgaGVpZ2h0PSIyLjgzNSIgd2lkdGg9IjEuNDE3IiB5PSI1NC4zIiB4PSIxMy40MjUiLz48cmVjdCBzdHlsZT0iZmlsbDojMmEyZDJlIiBoZWlnaHQ9IjIuMTI2IiB3aWR0aD0iMS40MTciIHk9IjU0LjY1NCIgeD0iMTMuNDI1Ii8+PHJlY3Qgc3R5bGU9ImZpbGw6I2RiZGRkYSIgaGVpZ2h0PSIyLjgzNCIgd2lkdGg9IjEuNDE3IiB5PSI1OS45NyIgeD0iMTMuNDI1Ii8+PHJlY3Qgc3R5bGU9ImZpbGw6IzJhMmQyZSIgaGVpZ2h0PSIyLjEyNyIgd2lkdGg9IjEuNDE3IiB5PSI2MC4zMjMiIHg9IjEzLjQyNSIvPjxyZWN0IHN0eWxlPSJmaWxsOiNkYmRkZGEiIGhlaWdodD0iMi44MzUiIHdpZHRoPSIxLjQxNyIgeT0iNDcuOTM1IiB4PSI0OC40MiIvPjxyZWN0IHN0eWxlPSJmaWxsOiMyYTJkMmUiIGhlaWdodD0iMi4xMjYiIHdpZHRoPSIxLjQxNyIgeT0iNDguMjg5IiB4PSI0OC40MiIvPjxyZWN0IHN0eWxlPSJmaWxsOiNkYmRkZGEiIGhlaWdodD0iMS4wNjIiIHdpZHRoPSIyLjEyNiIgeT0iNjkuMTIxIiB4PSI0MS4zNzkiLz48cmVjdCBzdHlsZT0iZmlsbDojOWE5MTZjIiBoZWlnaHQ9IjEuMDYyIiB3aWR0aD0iMS40MTgiIHk9IjY5LjEyMSIgeD0iNDEuNzMzIi8+PHJlY3Qgc3R5bGU9ImZpbGw6I2RiZGRkYSIgaGVpZ2h0PSIxLjA2MiIgd2lkdGg9IjIuMTI2IiB5PSI3MC4yMTQiIHg9IjE1LjgyNSIvPjxyZWN0IHN0eWxlPSJmaWxsOiM5YTkxNmMiIGhlaWdodD0iMS4wNjIiIHdpZHRoPSIxLjQxNyIgeT0iNzAuMjE0IiB4PSIxNi4xNzkiLz48cmVjdCBzdHlsZT0iZmlsbDojZGJkZGRhIiBoZWlnaHQ9IjEuMDYzIiB3aWR0aD0iMi4xMjYiIHk9IjgwLjcxOCIgeD0iMTUuODI1Ii8+PHJlY3Qgc3R5bGU9ImZpbGw6IzlhOTE2YyIgaGVpZ2h0PSIxLjA2MyIgd2lkdGg9IjEuNDE3IiB5PSI4MC43MTgiIHg9IjE2LjE3OSIvPjxyZWN0IHN0eWxlPSJmaWxsOiNkYmRkZGEiIHRyYW5zZm9ybT0idHJhbnNsYXRlKC00NS41NTMgNTQuNDUzKSByb3RhdGUoLTQ1KSIgaGVpZ2h0PSIyLjEyNiIgd2lkdGg9IjEuMDYzIiB5PSI4MS4xNTEiIHg9IjQyLjQyMyIvPjxyZWN0IHN0eWxlPSJmaWxsOiM5YTkxNmMiIHRyYW5zZm9ybT0idHJhbnNsYXRlKC00NS41NzEgNTQuNTEzKSByb3RhdGUoLTQ1LjAzOCkiIGhlaWdodD0iMS40MTciIHdpZHRoPSIxLjA2MyIgeT0iODEuNTA1IiB4PSI0Mi40MjQiLz48cmVjdCBzdHlsZT0iZmlsbDojZGJkZGRhIiBoZWlnaHQ9IjEuNDE4IiB3aWR0aD0iMi44MzUiIHk9Ijc4LjQzOSIgeD0iNDUuNDA4Ii8+PHJlY3Qgc3R5bGU9ImZpbGw6IzJhMmQyZSIgaGVpZ2h0PSIxLjQxOCIgd2lkdGg9IjIuMTI2IiB5PSI3OC40MzkiIHg9IjQ1Ljc2MyIvPjxyZWN0IHN0eWxlPSJmaWxsOiNkYmRkZGEiIGhlaWdodD0iMS40MTgiIHdpZHRoPSIyLjgzNSIgeT0iNzguNDM5IiB4PSI0NS40MDgiLz48cmVjdCBzdHlsZT0iZmlsbDojMmEyZDJlIiBoZWlnaHQ9IjEuNDE4IiB3aWR0aD0iMi4xMjYiIHk9Ijc4LjQzOSIgeD0iNDUuNzYzIi8+PHJlY3Qgc3R5bGU9ImZpbGw6I2RiZGRkYSIgaGVpZ2h0PSIxLjQxNyIgd2lkdGg9IjIuODM1IiB5PSI3NS43MzEiIHg9IjQ1LjQwOCIvPjxyZWN0IHN0eWxlPSJmaWxsOiMyYTJkMmUiIGhlaWdodD0iMS40MTciIHdpZHRoPSIyLjEyNiIgeT0iNzUuNzMxIiB4PSI0NS43NjMiLz48cmVjdCBzdHlsZT0iZmlsbDojZGJkZGRhIiBoZWlnaHQ9IjEuNDE4IiB3aWR0aD0iMi44MzUiIHk9IjY3LjUwMyIgeD0iMTQuNzYyIi8+PHJlY3Qgc3R5bGU9ImZpbGw6IzlhOTE2YyIgaGVpZ2h0PSIxLjQxOCIgd2lkdGg9IjIuMTI2IiB5PSI2Ny41MDMiIHg9IjE1LjExNiIvPjxyZWN0IHN0eWxlPSJmaWxsOiNkYmRkZGEiIGhlaWdodD0iMS40MTciIHdpZHRoPSIyLjgzNCIgeT0iOTYuNjQ3IiB4PSIyNC45MTkiLz48cmVjdCBzdHlsZT0iZmlsbDojMmEyZDJlIiBoZWlnaHQ9IjEuNDE3IiB3aWR0aD0iMi4xMjYiIHk9Ijk2LjY0NyIgeD0iMjUuMjcyIi8+PHJlY3Qgc3R5bGU9ImZpbGw6I2RiZGRkYSIgaGVpZ2h0PSIxLjQxNyIgd2lkdGg9IjIuODM0IiB5PSI5Ni42NDciIHg9IjI0LjkxOSIvPjxyZWN0IHN0eWxlPSJmaWxsOiMyYTJkMmUiIGhlaWdodD0iMS40MTciIHdpZHRoPSIyLjEyNiIgeT0iOTYuNjQ3IiB4PSIyNS4yNzIiLz48cGF0aCBzdHlsZT0iZmlsbDojZmZmIiBkPSJNMzguNDI3LDEyMS44MjlsLS4yMDctLjMwOWE0LjA1NCw0LjA1NCwwLDAsMC0yLjM3NC00LjAyNmMuMzYyLS4xLjc3NS0uMjA3Ljg3OC0uNjcxYS45ODcuOTg3LDAsMCwwLC44NzctLjc3NGMuMTU1LS4xLjc3NS0uNDY1LjY3MS0uOThhLjgzNC44MzQsMCwwLDAsLjQxMy0uOTI5Yy4zNjEtLjM2MS40NjQtLjY3MS4zMS0uOTgxYS43NDcuNzQ3LDAsMCwwLC4wNTEtMS4wODRjLjMxLS41NjcuMDUyLTEuMTg3LS44MjYtMS4wODRhMS4zNzEsMS4zNzEsMCwwLDAtMS4yMzgtLjQxMy44MzUuODM1LDAsMCwwLS44MjYtLjI1NywxLjAxNSwxLjAxNSwwLDAsMC0xLjEzNS0uMWMtLjQ2NS0uMzYxLS43NzQtLjA1Mi0xLjEzNi4wNTItLjU2Ny0uMjA2LS43MjIuMDUyLS45OC4xNTUtLjYxOS0uMTU1LS44MjUuMTU0LTEuMTM1LjQ2NWgtLjM2MWE0LjMwOCw0LjMwOCwwLDAsMC0xLjYsMi4yMTksMy42NCwzLjY0LDAsMCwwLTEuNi0yLjIxOWgtLjM2MmMtLjMwOS0uMzExLS40NjQtLjU2OC0xLjEzNS0uNDY1LS4yNTctLjEtLjQxMy0uMzYxLS45OC0uMTU1YTMuNzc2LDMuNzc2LDAsMCwwLS43MjMtLjIwNi45ODMuOTgzLDAsMCwwLS40NjUuMTU0LDEuMDEzLDEuMDEzLDAsMCwwLTEuMTM0LjFjLS41MTctLjA1Mi0uNzIzLjA1MS0uODI2LjI1Ny0uMSwwLS44NzctLjEtMS4yMzkuNDEzLS44NzgtLjEtMS4xMzUuNTE2LS44MjYsMS4wODRhLjc4Ny43ODcsMCwwLDAsLjA1MiwxLjA4NGMtLjE1NC4zMS0uMDUyLjYyLjMwOS45ODFhLjg2OC44NjgsMCwwLDAsLjQxMy45MjljLS4wNTEuNTY3LjUxNy44NzcuNjcxLjk4LjA1Mi4zMS4yMDcuNjE5Ljg3OC43NzQuMS40NjQuNTE2LjU2OC44NzcuNjcxYTQuMSw0LjEsMCwwLDAtMi4zNzQsNC4wMjZsLS4yMDcuMzA5YTMuOTY2LDMuOTY2LDAsMCwwLS43MjEsNS45ODcsMTIuNDU5LDEyLjQ1OSwwLDAsMCwuNTY3LDEuODA2LDQuNTQyLDQuNTQyLDAsMCwwLDIuNzg3LDMuNTA5LDEwLjYyNCwxMC42MjQsMCwwLDAsMi42MzIsMS41LDQuNDQ4LDQuNDQ4LDAsMCwwLDMuMjUxLDEuNDQ1aC4wNTJhNC40NTQsNC40NTQsMCwwLDAsMy4yNTItMS40NDUsOC41NjUsOC41NjUsMCwwLDAsMi42MzEtMS41LDQuMzU1LDQuMzU1LDAsMCwwLDIuNzg3LTMuNTA5LDEyLjQxNSwxMi40MTUsMCwwLDAsLjU2OC0xLjgwNiwzLjgsMy44LDAsMCwwLS41MTctNS45ODdtLTEuMDg0LS40MTNjLS4wNTEuOTI5LTUuMDA2LTMuMy00LjE4LTMuNDU4LDIuMzIyLS4zNjEsNC4yMzIuOTgxLDQuMTgsMy40NThtLTIuMjE4LDQuN2EyLjkzLDIuOTMsMCwwLDEtMy45NzUtMS4xMzYsMi44ODgsMi44ODgsMCwwLDEsLjUxNy00LjA3NiwyLjkyNiwyLjkyNiwwLDAsMSwzLjk3MywxLjEzNCwyLjg3NiwyLjg3NiwwLDAsMS0uNTE1LDQuMDc4bS0zLjQwNy0xNC42MDVjLjA1Mi4yMDYuMS4zNjEuMTU1LjM2MWE2LjUzOSw2LjUzOSwwLDAsMSwuODI2LS44NzhjMCwuMTU2LS4xLjM2Mi4xLjQ2NWEzLjMsMy4zLDAsMCwxLC43NzUtLjY3MWMtLjE1NS4yNTgtLjA1Mi4zNjIuMDUxLjQ2NWEyLjkwOCwyLjkwOCwwLDAsMSwuOTgxLS42MmMtLjE1NS4xNTUtLjMxLjMxLS4xLjUxN2EzLjQ0LDMuNDQsMCwwLDEsMS4xODgtLjQ2NWMtLjE1NS4xNTUtLjQ2NS4zMDktLjI1OC40NjVhNy4yODksNy4yODksMCwwLDEsMS4xMzUtLjI1OWMtLjIwNi4xNTUtLjM2MS4zMS0uMjA2LjQ2NWEyLjg0NCwyLjg0NCwwLDAsMSwxLjM0Mi0uMTU1bC0uMzEuMzFhNS42NjgsNS42NjgsMCwwLDAsMS4xODcuMDUyLDMuMDc1LDMuMDc1LDAsMCwwLS40NjQuOTI4Yy4wNTEuMDUyLjMwOSwwLC41MTUsMC0uMjU3LjUxNi0uNjcxLjYyLS43MjIuODI2YS41NTcuNTU3LDAsMCwwLC41NjcsMGMtLjE1NC4zNjEtLjUxNi41NjgtLjgyNS44NzguMDUyLjA1MS4yMDYuMS41MTUuMDUxYTcuMyw3LjMsMCwwLDEtLjkyOC43NzQsMi44MTgsMi44MTgsMCwwLDAsLjUxNS4xLDUuNTg4LDUuNTg4LDAsMCwxLTEuMTg2LjcyMy42NjkuNjY5LDAsMCwwLC41MTYuMSwzLjg3NiwzLjg3NiwwLDAsMS0xLjIzOS41MTZjLjEuMTU1LjE1NS4xNTUuMzYyLjIwNi0uNDY1LjI1OS0xLjE4OC4xNTUtMS4zOTQuMjU5LjA1Mi4xNTQuMTU1LjIwNi4zNjEuMzEtLjc3NC4wNTEtMi44ODktLjA1Mi0zLjMtMS42NTJhMTYuMjI3LDE2LjIyNywwLDAsMSw0Ljc0OC0zLjE0OCwxNS40MzQsMTUuNDM0LDAsMCwwLTUuMTYxLDIuNzM1Yy0xLjgwNi0uODI2LS42Mi0yLjgzOS4yNTgtMy42NjRtLTEuNzU1LDUuODMxaDBjMS4yMzksMCwyLjczNi44NzgsMi43MzYsMS43NTUsMCwuNzc0LTEuMDg0LDEuMzk0LTIuNzM2LDEuMzQyLTEuNjUxLDAtMi43MzUtLjc3NS0yLjczNS0xLjUsMC0uNjE5LDEuMzQyLTEuNjUyLDIuNzM1LTEuNm0tNi4yNDUtLjY3MWMuMjA3LS4wNTIuMjU5LS4wNTIuMzYyLS4yMDZhMy45MzEsMy45MzEsMCwwLDEtMS4yMzktLjUxNi42NzMuNjczLDAsMCwwLC41MTYtLjEsNS42NDUsNS42NDUsMCwwLDEtMS4xODctLjcyM2MuMjA2LDAsLjQ2NCwwLC41MTYtLjFhMy4zNzMsMy4zNzMsMCwwLDEtLjkyOS0uNzc1LjcuNywwLDAsMCwuNTE2LS4wNTEsNi42NSw2LjY1LDAsMCwxLS44MjUtLjg3Ny43MjIuNzIyLDAsMCwwLC41NjcsMGMtLjEtLjIwNi0uNTE1LS4zNjItLjcyMi0uODI2LjIwNywwLC40NjQuMDUxLjUxNiwwYTMuMDk0LDMuMDk0LDAsMCwwLS40NjUtLjkyOSw1LjM4Myw1LjM4MywwLDAsMCwxLjE4OC0uMDUybC0uMzExLS4zMWEyLjMxNSwyLjMxNSwwLDAsMSwxLjM0Mi4xNTZjLjE1NS0uMSwwLS4yNTgtLjIwNi0uNDY1YTcuNDE5LDcuNDE5LDAsMCwxLDEuMTM2LjI1OGMuMTU0LS4xNTUtLjEtLjMxLS4yNTktLjQ2NGEyLjkxNCwyLjkxNCwwLDAsMSwxLjE4Ny40NjRjLjIwNi0uMjA2LDAtLjM2Mi0uMS0uNTE2YTIuOTA3LDIuOTA3LDAsMCwxLC45OC42MTljLjEtLjEuMjA3LS4yMDYuMDUyLS40NjRhMi4wMzUsMi4wMzUsMCwwLDEsLjc3NS42N2MuMjA2LS4xNTQuMS0uMzA5LjEtLjQ2NGE0LjQ0Miw0LjQ0MiwwLDAsMSwuODI1Ljg3Ny43ODQuNzg0LDAsMCwwLC4xNTYtLjM2MWMuODI1LjgyNiwyLjAxMiwyLjgzOS4zMDksMy42MTJhMTYuNDQsMTYuNDQsMCwwLDAtNS4xNjEtMi43MzQsMTcuNCwxNy40LDAsMCwxLDQuNzQ4LDMuMTQ3Yy0uNDEzLDEuNi0yLjUyOSwxLjctMy4zLDEuNjUyYS41NDguNTQ4LDAsMCwwLC4zNjItLjMxLDQuMTY1LDQuMTY1LDAsMCwxLTEuNDQ2LS4yMDZtMy4wNDUsMS4yMzljLjg3OC4xNTUtNC4wNzcsNC4zODctNC4xNzksMy40NTctLjA1Mi0yLjQ3NiwxLjg1Ny0zLjgxOCw0LjE3OS0zLjQ1N20tNS4yMTIsOS40NDRhMy4xNDgsMy4xNDgsMCwwLDEsLjYxOS01LjAwNmMxLjM0Mi0uMzEuNDY1LDUuNTIyLS42MTksNS4wMDZtNC41OTMsNS4wMDdjLS42NzEuNDEyLTIuMzIyLjI1Ny0zLjUwOS0xLjM5NC0uNzc0LTEuMzkzLS42NzEtMi43ODctLjE1NS0zLjIuODI1LS41MTYsMi4xMTYuMTU1LDMuMSwxLjI5Ljg3Ny45OCwxLjI5LDIuNzg3LjU2NywzLjNtMy44MTksMi44MzhjLTEuNS4wNTEtMi45NDItMS4xODctMi45NDItMS42NTIsMC0uNjE5LDEuODA3LTEuMTM2LDIuOTk0LTEuMTM2LDEuMTg3LS4wNSwyLjgzOC4zNjIsMi44MzguOTgxLjA1Mi41NjgtMS40NDQsMS44MDctMi44OSwxLjgwN20yLjk5NC02LjM0OGEyLjg4MywyLjg4MywwLDAsMS0yLjk5NCwyLjczNSwyLjg1LDIuODUsMCwwLDEtMi45OTMtMi43MzVWMTI4LjhhMi44ODQsMi44ODQsMCwwLDEsMi45OTMtMi43MzUsMi45MjYsMi45MjYsMCwwLDEsMi45OTQsMi43ODdtNC4xOCwyLjE2OGMtMS4yOTEsMS43NTQtMi45OTMsMS44MDUtMy42NjUsMS4zNDItLjY3MS0uNjIxLS4xNTQtMi41ODEuNzc1LTMuNjY0LDEuMDg0LTEuMTg4LDIuMjE5LTEuOTYyLDIuOTkzLTEuMzQzYTMuMzU1LDMuMzU1LDAsMCwxLS4xLDMuNjY1bTEuMTM1LTMuNzE2Yy0xLjA4NC40NjQtMS45NjEtNS4zMTYtLjYxOS01LjAwN2EzLjEyLDMuMTIsMCwwLDEsLjYxOSw1LjAwN20tMTMuMy0xLjA1M2EyLjkzMSwyLjkzMSwwLDAsMS0uNjg4LTQuMDc3LDIuODg3LDIuODg3LDAsMCwxLDMuOS0xLjI4OSwyLjkyNywyLjkyNywwLDAsMSwuNjg5LDQuMDc0LDIuODc3LDIuODc3LDAsMCwxLTMuOSwxLjI5MiIvPjxwYXRoIHN0eWxlPSJmaWxsOiMzZDNmMzgiIGQ9Ik0yMi4wNzMsODMuMzkySDIxLjh2LjYzM2gtLjJWODIuNDZoLjQzOGEuNDY5LjQ2OSwwLDAsMSwuMzQ5LjEyLjU2LjU2LDAsMCwxLC4wNTQuNi40LjQsMCwwLDEtLjE4MS4xNjNsLjMuNjY1di4wMTNoLS4yMTJabS0uMjc1LS4xNjhoLjIzOGEuMjU4LjI1OCwwLDAsMCwuMi0uMDguMzA3LjMwNywwLDAsMCwuMDczLS4yMTNjMC0uMi0uMDkxLS4zLS4yNzMtLjNIMjEuOFoiLz48cGF0aCBzdHlsZT0iZmlsbDojM2QzZjM4IiBkPSJNMjMuMTg1LDgzLjQxMnYuNjEyaC0uMlY4Mi40NmguNWEuNDUzLjQ1MywwLDAsMSwuMzQzLjEzMS41NTguNTU4LDAsMCwxLC4wMDUuNy40NjEuNDYxLDAsMCwxLS4zMzUuMTI2Wm0wLS4xNjhoLjNhLjI1MS4yNTEsMCwwLDAsLjItLjA3OS4zMjYuMzI2LDAsMCwwLC4wNy0uMjI1LjMzNy4zMzcsMCwwLDAtLjA3Mi0uMjI2LjI0My4yNDMsMCwwLDAtLjItLjA4NWgtLjNaIi8+PHBhdGggc3R5bGU9ImZpbGw6IzNkM2YzOCIgZD0iTTI1LjI1OSw4NC4wMjRoLS44NzV2LS4xNDNsLjQ0Ni0uNTlhMS4xNzQsMS4xNzQsMCwwLDAsLjE0LS4yMjUuNDQ5LjQ0OSwwLDAsMCwuMDQtLjE4NS4zMjcuMzI3LDAsMCwwLS4wNTktLjJBLjE4MS4xODEsMCwwLDAsMjQuOCw4Mi42YS4yMjEuMjIxLDAsMCwwLS4xODUuMDgyLjM4My4zODMsMCwwLDAtLjA2NC4yMzZoLS4xOWEuNS41LDAsMCwxLC4xMTgtLjM0OC40MDYuNDA2LDAsMCwxLC4zMjEtLjEzNC4zODEuMzgxLDAsMCwxLC4yOTQuMTE1LjQyNC40MjQsMCwwLDEsLjEwNy4zLjk2OS45NjksMCwwLDEtLjI0MS41NWwtLjM0Ny40NTVoLjY0N1oiLz48cmVjdCBzdHlsZT0iZmlsbDojM2QzZjM4IiBoZWlnaHQ9IjAuMTYyIiB3aWR0aD0iMC40NDMiIHk9IjgzLjI3OSIgeD0iMjUuNjE2Ii8+PHBhdGggc3R5bGU9ImZpbGw6IzNkM2YzOCIgZD0iTTI3LjI2MSw4Mi44NjlhLjQwNy40MDcsMCwwLDEtLjA1Mi4yMDguMzc3LjM3NywwLDAsMS0uMTQuMTQzLjQuNCwwLDAsMSwuMTYzLjE1NC41LjUsMCwwLDEtLjA1Ni41NTIuNDQzLjQ0MywwLDAsMS0uNjA2LDAsLjQ1NS40NTUsMCwwLDEtLjExNS0uMzI0LjQ0My40NDMsMCwwLDEsLjA1OS0uMjMuMzc1LjM3NSwwLDAsMSwuMTYtLjE1My4zNjcuMzY3LDAsMCwxLS4xMzktLjE0My40MjcuNDI3LDAsMCwxLS4wNTEtLjIwOC40NDEuNDQxLDAsMCwxLC4xMDgtLjMxMy40LjQsMCwwLDEsLjU2MiwwLC40NDUuNDQ1LDAsMCwxLC4xMDcuMzE1bS0uMTYuNzNhLjM0MS4zNDEsMCwwLDAtLjA2My0uMjE2LjIuMiwwLDAsMC0uMTY3LS4wODEuMi4yLDAsMCwwLS4xNjYuMDgyLjM1Mi4zNTIsMCwwLDAtLjA2MS4yMTUuMzM2LjMzNiwwLDAsMCwuMDYuMjEuMjA4LjIwOCwwLDAsMCwuMTcuMDc1LjIuMiwwLDAsMCwuMTY4LS4wNzUuMzMuMzMsMCwwLDAsLjA1OS0uMjFtLS4wMjktLjcyN2EuMzE1LjMxNSwwLDAsMC0uMDU2LS4xOTQuMTc1LjE3NSwwLDAsMC0uMjg4LDAsLjMyMi4zMjIsMCwwLDAtLjA1My4xOTUuMzE3LjMxNywwLDAsMCwuMDU0LjE5NC4xNzUuMTc1LDAsMCwwLC4xNDUuMDczLjE3LjE3LDAsMCwwLC4xNDQtLjA3NC4zMTYuMzE2LDAsMCwwLC4wNTQtLjE5MyIvPjxwYXRoIHN0eWxlPSJmaWxsOiMzZDNmMzgiIGQ9Ik0yOC42LDgzLjM1N2ExLjA1LDEuMDUsMCwwLDEtLjEuNTE4LjM4LjM4LDAsMCwxLS42My4wMDcuOTY4Ljk2OCwwLDAsMS0uMTA3LS40OTR2LS4yNjlhMS4wMjgsMS4wMjgsMCwwLDEsLjEtLjUxMi4zODQuMzg0LDAsMCwxLC42MjktLjAwNy45MzUuOTM1LDAsMCwxLC4xMDcuNDg0Wm0tLjE5LS4yNzFhLjkuOSwwLDAsMC0uMDU1LS4zNjYuMTgxLjE4MSwwLDAsMC0uMTc0LS4xMTcuMTc5LjE3OSwwLDAsMC0uMTcyLjExNS44NjYuODY2LDAsMCwwLS4wNTguMzQ4di4zMjNhLjkyNS45MjUsMCwwLDAsLjA1OC4zNzEuMTgzLjE4MywwLDAsMCwuMTczLjEyNC4xNzkuMTc5LDAsMCwwLC4xNzEtLjExNy45MS45MSwwLDAsMCwuMDU3LS4zNThaIi8+PHBhdGggc3R5bGU9ImZpbGw6IzNkM2YzOCIgZD0iTTMyLjgzOCw4NC4wMjRoLS44NzV2LS4xNDNsLjQ0Ni0uNTlhMS4xNzQsMS4xNzQsMCwwLDAsLjE0LS4yMjUuNDQ5LjQ0OSwwLDAsMCwuMDQtLjE4NS4zMjcuMzI3LDAsMCwwLS4wNTktLjIuMTgxLjE4MSwwLDAsMC0uMTUyLS4wNzcuMjIxLjIyMSwwLDAsMC0uMTg1LjA4Mi4zODMuMzgzLDAsMCwwLS4wNjQuMjM2aC0uMTlhLjUuNSwwLDAsMSwuMTE4LS4zNDguNDA2LjQwNiwwLDAsMSwuMzIxLS4xMzQuMzgxLjM4MSwwLDAsMSwuMjk0LjExNS40MjQuNDI0LDAsMCwxLC4xMDcuMy45NjkuOTY5LDAsMCwxLS4yNDEuNTVsLS4zNDcuNDU1aC42NDdaIi8+PHBhdGggc3R5bGU9ImZpbGw6IzNkM2YzOCIgZD0iTTM0LjEsODMuMzU3YTEuMDQ4LDEuMDQ4LDAsMCwxLS4xLjUxOC4zNzkuMzc5LDAsMCwxLS42MjkuMDA3Ljk1OC45NTgsMCwwLDEtLjEwNy0uNDk0di0uMjY5YTEuMDI5LDEuMDI5LDAsMCwxLC4xLS41MTJBLjM4NS4zODUsMCwwLDEsMzQsODIuNmEuOTQ1Ljk0NSwwLDAsMSwuMTA3LjQ4NFptLS4xOS0uMjcxYS45MjIuOTIyLDAsMCwwLS4wNTUtLjM2Ni4xODIuMTgyLDAsMCwwLS4xNzUtLjExNy4xOC4xOCwwLDAsMC0uMTcyLjExNS44ODYuODg2LDAsMCwwLS4wNTcuMzQ4di4zMjNhLjkyOC45MjgsMCwwLDAsLjA1Ny4zNzEuMTg0LjE4NCwwLDAsMCwuMTc0LjEyNC4xNzguMTc4LDAsMCwwLC4xNy0uMTE3LjkwNy45MDcsMCwwLDAsLjA1OC0uMzU4WiIvPjxwb2x5Z29uIHN0eWxlPSJmaWxsOiMzZDNmMzgiIHBvaW50cz0iMzQuNjQ0IDg0LjE1OSAzNC40ODMgODQuMTU5IDM1LjAzMyA4Mi40NjEgMzUuMTkyIDgyLjQ2MSAzNC42NDQgODQuMTU5Ii8+PHBhdGggc3R5bGU9ImZpbGw6IzNkM2YzOCIgZD0iTTM2LjQ4Niw4NC4wMjRoLS44NzV2LS4xNDNsLjQ0Ni0uNTlhMS4xNzQsMS4xNzQsMCwwLDAsLjE0LS4yMjUuNDQ5LjQ0OSwwLDAsMCwuMDQtLjE4NS4zMjcuMzI3LDAsMCwwLS4wNTktLjIuMTgyLjE4MiwwLDAsMC0uMTUyLS4wNzcuMjIyLjIyMiwwLDAsMC0uMTg1LjA4Mi4zODMuMzgzLDAsMCwwLS4wNjQuMjM2aC0uMTlhLjUuNSwwLDAsMSwuMTE4LS4zNDguNDA2LjQwNiwwLDAsMSwuMzIxLS4xMzQuMzguMzgsMCwwLDEsLjI5NC4xMTUuNDI0LjQyNCwwLDAsMSwuMTA3LjMuOTY5Ljk2OSwwLDAsMS0uMjQxLjU1bC0uMzQ3LjQ1NWguNjQ3WiIvPjxwb2x5Z29uIHN0eWxlPSJmaWxsOiMzZDNmMzgiIHBvaW50cz0iMzcuNDgzIDg0LjAyNCAzNy4yOTMgODQuMDI0IDM3LjI5MyA4Mi43IDM2Ljk2MyA4Mi44NDcgMzYuOTYzIDgyLjY2NyAzNy40NTMgODIuNDUzIDM3LjQ4MyA4Mi40NTMgMzcuNDgzIDg0LjAyNCIvPjxwYXRoIHN0eWxlPSJmaWxsOiMzZDNmMzgiIGQ9Ik0yMS43NjgsODUuOTEydi42MTJoLS4yVjg0Ljk2aC41YS40NTMuNDUzLDAsMCwxLC4zNDMuMTMxLjU1OC41NTgsMCwwLDEsMCwuNy40Ni40NiwwLDAsMS0uMzM1LjEyNlptMC0uMTY4aC4zYS4yNTQuMjU0LDAsMCwwLC4yLS4wNzkuNC40LDAsMCwwLDAtLjQ1MS4yNDMuMjQzLDAsMCwwLS4yLS4wODVoLS4zWiIvPjxwYXRoIHN0eWxlPSJmaWxsOiMzZDNmMzgiIGQ9Ik0yMy42Myw4NC45NnYuMTY4SDIzLjZhLjM4Ni4zODYsMCwwLDAtLjMuMTI5LjYxNC42MTQsMCwwLDAtLjEyMy4zNzMuMzI1LjMyNSwwLDAsMSwuMjY2LS4xMzEuMzIxLjMyMSwwLDAsMSwuMjc1LjE0My42MjkuNjI5LDAsMCwxLC4xLjM3My42MTUuNjE1LDAsMCwxLS4xMTEuMzg4LjM2Ni4zNjYsMCwwLDEtLjMuMTQzLjM1NS4zNTUsMCwwLDEtLjMwNi0uMTY5Ljc3Ljc3LDAsMCwxLS4xMTYtLjQ0N3YtLjA3N2ExLjUyMywxLjUyMywwLDAsMSwuMDctLjUxMy41NTQuNTU0LDAsMCwxLC4yMDYtLjI4NC42LjYsMCwwLDEsLjMzOC0uMWguMDMyWm0tLjIxOC43YS4yMTMuMjEzLDAsMCwwLS4xNDQuMDU5LjMyNy4zMjcsMCwwLDAtLjA5My4xNXYuMDc5YS42MzkuNjM5LDAsMCwwLC4wNjYuMzEuMi4yLDAsMCwwLC4xNjUuMTIuMTg3LjE4NywwLDAsMCwuMTY3LS4xLjU4OS41ODksMCwwLDAsMC0uNTE4LjE4My4xODMsMCwwLDAtLjE2MS0uMSIvPjxwYXRoIHN0eWxlPSJmaWxsOiMzZDNmMzgiIGQ9Ik0yNC45OTMsODZoLjE3NHYuMTYyaC0uMTc0di4zNjNIMjQuOHYtLjM2M2gtLjU5MXYtLjExNmwuNTgxLTEuMDg0aC4yWm0tLjU3LDBoLjM4di0uNzQzWiIvPjxwb2x5Z29uIHN0eWxlPSJmaWxsOiMzZDNmMzgiIHBvaW50cz0iMjUuODc3IDg0Ljk2IDI2LjI4NSA4Ni4yMzYgMjYuNjkzIDg0Ljk2IDI2Ljk0NSA4NC45NiAyNi45NDUgODYuNTI0IDI2Ljc0OSA4Ni41MjQgMjYuNzQ5IDg1LjkxNiAyNi43NjkgODUuMzA2IDI2LjM1NyA4Ni41MjQgMjYuMjA4IDg2LjUyNCAyNS44MDEgODUuMzEgMjUuODE4IDg1LjkxNiAyNS44MTggODYuNTI0IDI1LjYyMiA4Ni41MjQgMjUuNjIyIDg0Ljk2IDI1Ljg3NyA4NC45NiIvPjxwb2x5Z29uIHN0eWxlPSJmaWxsOiMzZDNmMzgiIHBvaW50cz0iMjguMDI4IDg2LjUyNCAyNy44MzcgODYuNTI0IDI3LjgzNyA4NS4yIDI3LjUwNyA4NS4zNDcgMjcuNTA3IDg1LjE2NyAyNy45OTggODQuOTUzIDI4LjAyOCA4NC45NTMgMjguMDI4IDg2LjUyNCIvPjxwYXRoIHN0eWxlPSJmaWxsOiMzZDNmMzgiIGQ9Ik0yOC44NDUsODUuNzRsLjA2Ny0uNzhoLjY4di4xODRoLS41MTlsLS4wMzguNDI2YS4zNTguMzU4LDAsMCwxLC4yMDktLjA2Ny4zMzkuMzM5LDAsMCwxLC4yODcuMTQyLjYyNC42MjQsMCwwLDEsLjEuMzgxLjU5MS41OTEsMCwwLDEtLjExMy4zODIuNDE4LjQxOCwwLDAsMS0uNi4wMjMuNS41LDAsMCwxLS4xMjctLjMxOGguMTc5YS4zNjUuMzY1LDAsMCwwLC4wNzYuMi4yLjIsMCwwLDAsLjE1OS4wNjkuMi4yLDAsMCwwLC4xNzMtLjEuNDgxLjQ4MSwwLDAsMCwuMDYyLS4yNi40MjkuNDI5LDAsMCwwLS4wNjctLjI1LjIxMS4yMTEsMCwwLDAtLjE4MS0uMS4yMjQuMjI0LDAsMCwwLS4xNTIuMDVsLS4wNS4wNVoiLz48cGF0aCBzdHlsZT0iZmlsbDojM2QzZjM4IiBkPSJNMzAuMSw4Ni40MmEuMTMuMTMsMCwwLDEsLjAzMS0uMDg2LjEyMS4xMjEsMCwwLDEsLjA5Mi0uMDM0LjEyMy4xMjMsMCwwLDEsLjA5My4wMzQuMTI1LjEyNSwwLDAsMSwuMDMyLjA4Ni4xMTYuMTE2LDAsMCwxLS4wMzIuMDgzLjEyMy4xMjMsMCwwLDEtLjA5My4wMzMuMTExLjExMSwwLDAsMS0uMTIzLS4xMTYiLz48cGF0aCBzdHlsZT0iZmlsbDojM2QzZjM4IiBkPSJNMzEuNzA4LDg1Ljg1N2ExLjA2MSwxLjA2MSwwLDAsMS0uMS41MTguMzguMzgsMCwwLDEtLjYzLjAwNy45NjguOTY4LDAsMCwxLS4xMDctLjQ5NHYtLjI2OWExLjAyOCwxLjAyOCwwLDAsMSwuMS0uNTEyQS4zODQuMzg0LDAsMCwxLDMxLjYsODUuMWEuOTM1LjkzNSwwLDAsMSwuMTA3LjQ4NFptLS4xOS0uMjcxYS45LjksMCwwLDAtLjA1NS0uMzY2LjE4MS4xODEsMCwwLDAtLjE3NC0uMTE3LjE3OS4xNzksMCwwLDAtLjE3Mi4xMTUuODY2Ljg2NiwwLDAsMC0uMDU4LjM0OHYuMzIzYS45MjUuOTI1LDAsMCwwLC4wNTguMzcxLjE4My4xODMsMCwwLDAsLjE3My4xMjQuMTc5LjE3OSwwLDAsMCwuMTcxLS4xMTcuOTEuOTEsMCwwLDAsLjA1Ny0uMzU4WiIvPjxwYXRoIHN0eWxlPSJmaWxsOiMzZDNmMzgiIGQ9Ik0zMy4wMTQsODUuODU3YTEuMDUsMS4wNSwwLDAsMS0uMS41MTguMzguMzgsMCwwLDEtLjYzLjAwNy45NjguOTY4LDAsMCwxLS4xMDctLjQ5NHYtLjI2OWExLjAyOCwxLjAyOCwwLDAsMSwuMS0uNTEyLjM4NS4zODUsMCwwLDEsLjYzLS4wMDcuOTQ2Ljk0NiwwLDAsMSwuMTA2LjQ4NFptLS4xODktLjI3MWEuOS45LDAsMCwwLS4wNTYtLjM2Ni4xODcuMTg3LDAsMCwwLS4zNDYsMCwuODY4Ljg2OCwwLDAsMC0uMDU3LjM0OHYuMzIzYS45MjguOTI4LDAsMCwwLC4wNTcuMzcxLjE4My4xODMsMCwwLDAsLjE3My4xMjQuMTc4LjE3OCwwLDAsMCwuMTcxLS4xMTcuOTA3LjkwNywwLDAsMCwuMDU4LS4zNThaIi8+PHBvbHlnb24gc3R5bGU9ImZpbGw6IzNkM2YzOCIgcG9pbnRzPSIzNS4xMjMgODUuMTI5IDM0LjcxMiA4NS4xMjkgMzQuNzEyIDg2LjUyNSAzNC41MTUgODYuNTI1IDM0LjUxNSA4NS4xMjkgMzQuMTA0IDg1LjEyOSAzNC4xMDQgODQuOTYgMzUuMTIzIDg0Ljk2IDM1LjEyMyA4NS4xMjkiLz48cG9seWdvbiBzdHlsZT0iZmlsbDojM2QzZjM4IiBwb2ludHM9IjM2LjUwNSA4NS4xMjkgMzYuMDkzIDg1LjEyOSAzNi4wOTMgODYuNTI1IDM1Ljg5NyA4Ni41MjUgMzUuODk3IDg1LjEyOSAzNS40ODYgODUuMTI5IDM1LjQ4NiA4NC45NiAzNi41MDQgODQuOTYgMzYuNTA0IDg1LjEyOSAzNi41MDUgODUuMTI5Ii8+PHBvbHlnb24gc3R5bGU9ImZpbGw6IzNkM2YzOCIgcG9pbnRzPSIzNy44ODcgODUuMTI5IDM3LjQ3NiA4NS4xMjkgMzcuNDc2IDg2LjUyNSAzNy4yNzkgODYuNTI1IDM3LjI3OSA4NS4xMjkgMzYuODY4IDg1LjEyOSAzNi44NjggODQuOTYgMzcuODg3IDg0Ljk2IDM3Ljg4NyA4NS4xMjkiLz48cGF0aCBzdHlsZT0iZmlsbDojM2QzZjM4IiBkPSJNMzMuMjcxLDc1LjgzOGwtLjA4NC0uMTI1YTEuNjQxLDEuNjQxLDAsMCwwLS45Ni0xLjYzYy4xNDYtLjA0Mi4zMTMtLjA4My4zNTUtLjI3MWEuNC40LDAsMCwwLC4zNTUtLjMxNGMuMDYzLS4wNDIuMzEzLS4xODcuMjcyLS40YS4zMzcuMzM3LDAsMCwwLC4xNjctLjM3NmMuMTQ1LS4xNDYuMTg3LS4yNzIuMTI1LS40YS4zLjMsMCwwLDAsLjAyLS40MzhjLjEyNi0uMjMxLjAyMi0uNDgxLS4zMzQtLjQzOWEuNTUzLjU1MywwLDAsMC0uNS0uMTY4LjM0LjM0LDAsMCwwLS4zMzUtLjEuNDEuNDEsMCwwLDAtLjQ1OS0uMDQyYy0uMTg5LS4xNDYtLjMxNC0uMDIxLS40Ni4wMjEtLjIzLS4wODQtLjI5My4wMjEtLjQuMDYzLS4yNS0uMDYzLS4zMzQuMDYyLS40NTkuMTg3SDMwLjQzYTEuNzQ5LDEuNzQ5LDAsMCwwLS42NDguOSwxLjQ3NywxLjQ3NywwLDAsMC0uNjQ3LS45aC0uMTQ3YS40MjcuNDI3LDAsMCwwLS40Ni0uMTg3Yy0uMS0uMDQyLS4xNjctLjE0Ny0uNC0uMDYzYTEuNTU5LDEuNTU5LDAsMCwwLS4yOTMtLjA4NC40LjQsMCwwLDAtLjE4OC4wNjMuNDExLjQxMSwwLDAsMC0uNDYuMDQyYy0uMjA5LS4wMjEtLjI5My4wMjEtLjMzNC4xLS4wNDIsMC0uMzU1LS4wNDItLjUuMTY4LS4zNTUtLjA0Mi0uNDU5LjIwOS0uMzM0LjQzOWEuMzE4LjMxOCwwLDAsMCwuMDIxLjQzOGMtLjA2My4xMjUtLjAyMS4yNTEuMTI1LjRhLjM1LjM1LDAsMCwwLC4xNjguMzc2Yy0uMDIyLjIzLjIwOS4zNTUuMjcxLjQuMDIxLjEyNS4wODMuMjUxLjM1Ni4zMTQuMDQxLjE4Ny4yMDkuMjI5LjM1NC4yNzFhMS42NjIsMS42NjIsMCwwLDAtLjk2MSwxLjYzbC0uMDgzLjEyNWExLjYwNiwxLjYwNiwwLDAsMC0uMjkzLDIuNDI0LDUuMTMsNS4xMywwLDAsMCwuMjMuNzMsMS44NCwxLjg0LDAsMCwwLDEuMTI5LDEuNDIxLDQuMjg5LDQuMjg5LDAsMCwwLDEuMDY1LjYwNywxLjgwNiwxLjgwNiwwLDAsMCwxLjMxNy41ODVoLjAyYTEuODA2LDEuODA2LDAsMCwwLDEuMzE3LS41ODUsMy40NzgsMy40NzgsMCwwLDAsMS4wNjUtLjYwNywxLjc2MywxLjc2MywwLDAsMCwxLjEyOC0xLjQyMSw0Ljg5LDQuODksMCwwLDAsLjIyOS0uNzMsMS41MzYsMS41MzYsMCwwLDAtLjIwOC0yLjQyNG0tLjQzOS0uMTY3Yy0uMDIuMzc2LTIuMDI2LTEuMzM3LTEuNjkyLTEuNGExLjM1MywxLjM1MywwLDAsMSwxLjY5MiwxLjRtLS45LDEuOWExLjE4NiwxLjE4NiwwLDAsMS0xLjYwOS0uNDYsMS4xNywxLjE3LDAsMCwxLC4yMDktMS42NTEsMS4xODUsMS4xODUsMCwwLDEsMS42MDkuNDYsMS4xNjQsMS4xNjQsMCwwLDEtLjIwOSwxLjY1MW0tMS4zNzktNS45MTRjLjAyMS4wODQuMDQyLjE0Ny4wNjMuMTQ3YTIuODE1LDIuODE1LDAsMCwxLC4zMzQtLjM1NmMwLC4wNjQtLjA0Mi4xNDcuMDQyLjE4OWExLjI5MiwxLjI5MiwwLDAsMSwuMzE0LS4yNzJjLS4wNjQuMS0uMDIyLjE0Ny4wMi4xODhhMS4yLDEuMiwwLDAsMSwuNC0uMjUxYy0uMDYzLjA2My0uMTI1LjEyNi0uMDQxLjIxYTEuMzY4LDEuMzY4LDAsMCwxLC40OC0uMTg5Yy0uMDYzLjA2My0uMTg4LjEyNS0uMS4xODlhMi45MTUsMi45MTUsMCwwLDEsLjQ1OS0uMWMtLjA4My4wNjMtLjE0Ni4xMjUtLjA4My4xODhhMS4xNDMsMS4xNDMsMCwwLDEsLjU0My0uMDYzbC0uMTI1LjEyNWEyLjE4NSwyLjE4NSwwLDAsMCwuNDguMDIyLDEuMjIsMS4yMiwwLDAsMC0uMTg4LjM3NmMuMDIxLjAyLjEyNSwwLC4yMDgsMC0uMS4yMDgtLjI3MS4yNS0uMjkyLjMzNGEuMjI1LjIyNSwwLDAsMCwuMjMsMGMtLjA2My4xNDYtLjIwOS4yMjktLjMzNC4zNTUuMDIxLjAyMS4wODMuMDQxLjIwOC4wMjFhMi45LDIuOSwwLDAsMS0uMzc2LjMxMywxLjIwNywxLjIwNywwLDAsMCwuMjA5LjA0MiwyLjIzMywyLjIzMywwLDAsMS0uNDguMjkyLjI3LjI3LDAsMCwwLC4yMDkuMDQyLDEuNTUzLDEuNTUzLDAsMCwxLS41LjIwOWMuMDQyLjA2My4wNjIuMDYzLjE0Ni4wODQtLjE4OC4xMDUtLjQ4LjA2My0uNTY0LjEwNS4wMi4wNjIuMDYyLjA4My4xNDYuMTI1LS4zMTMuMDItMS4xNy0uMDIxLTEuMzM3LS42NjlhNi41OSw2LjU5LDAsMCwxLDEuOTIyLTEuMjc1LDYuMjg0LDYuMjg0LDAsMCwwLTIuMDksMS4xMDhjLS43My0uMzM0LS4yNS0xLjE0OS4xMDUtMS40ODRtLS43MSwyLjM2MmgwYy41LDAsMS4xMDcuMzU0LDEuMTA3LjcxLDAsLjMxMy0uNDM4LjU2NC0xLjEwNy41NDMtLjY2OSwwLTEuMTA4LS4zMTQtMS4xMDgtLjYwNiwwLS4yNTEuNTQzLS42NjksMS4xMDgtLjY0N20tMi41MjktLjI3MmMuMDg0LS4wMjEuMTA1LS4wMjEuMTQ3LS4wODRhMS41NDMsMS41NDMsMCwwLDEtLjUtLjIwOS4yNy4yNywwLDAsMCwuMjA5LS4wNDEsMi4zMSwyLjMxLDAsMCwxLS40ODEtLjI5M2MuMDgzLDAsLjE4OCwwLC4yMDktLjA0MmExLjM0MywxLjM0MywwLDAsMS0uMzc2LS4zMTMuMjc4LjI3OCwwLDAsMCwuMjA4LS4wMjEsMi43NCwyLjc0LDAsMCwxLS4zMzQtLjM1NS4yOTEuMjkxLDAsMCwwLC4yMywwYy0uMDQxLS4wODMtLjIwOS0uMTQ2LS4yOTItLjMzNC4wODMsMCwuMTg3LjAyLjIwOSwwYTEuMjMyLDEuMjMyLDAsMCwwLS4xODktLjM3NiwyLjE4MiwyLjE4MiwwLDAsMCwuNDgxLS4wMjFsLS4xMjUtLjEyNmEuOTMyLjkzMiwwLDAsMSwuNTQzLjA2M2MuMDYyLS4wNDEsMC0uMS0uMDgzLS4xODhhMi45OCwyLjk4LDAsMCwxLC40Ni4xYy4wNjItLjA2My0uMDQyLS4xMjUtLjEwNS0uMTg5YTEuMiwxLjIsMCwwLDEsLjQ4MS4xODljLjA4My0uMDg0LDAtLjE0Ny0uMDQyLS4yMDlhMS4xNjUsMS4xNjUsMCwwLDEsLjQuMjUxYy4wNDItLjA0Mi4wODQtLjA4NC4wMjItLjE4OWEuODE5LjgxOSwwLDAsMSwuMzEyLjI3MmMuMDg0LS4wNjMuMDQyLS4xMjUuMDQyLS4xODhhMS43NzIsMS43NzIsMCwwLDEsLjMzNS4zNTUuMzM2LjMzNiwwLDAsMCwuMDYzLS4xNDZjLjMzNC4zMzQuODE0LDEuMTQ5LjEyNSwxLjQ2MmE2LjY2Myw2LjY2MywwLDAsMC0yLjA4OS0xLjEwNyw3LjA2OCw3LjA2OCwwLDAsMSwxLjkyMiwxLjI3NGMtLjE2Ny42NDktMS4wMjQuNjktMS4zMzcuNjY5YS4yMTkuMjE5LDAsMCwwLC4xNDYtLjEyNSwxLjY4NSwxLjY4NSwwLDAsMS0uNTg2LS4wODRtMS4yMzQuNWMuMzU0LjA2My0xLjY1MiwxLjc3Ny0xLjY5MywxLjRhMS4zNTUsMS4zNTUsMCwwLDEsMS42OTMtMS40bS0yLjExMSwzLjgyNGExLjI3NSwxLjI3NSwwLDAsMSwuMjUxLTIuMDI3Yy41NDMtLjEyNS4xODgsMi4yMzUtLjI1MSwyLjAyN00yOC4zLDgwLjFhMS4xOTEsMS4xOTEsMCwwLDEtMS40MjEtLjU2NGMtLjMxNC0uNTY0LS4yNzItMS4xMjgtLjA2My0xLjMuMzM0LS4yMDguODU3LjA2NCwxLjI1My41MjMuMzU2LjQuNTIzLDEuMTI4LjIzMSwxLjMzN20tLjU0My0yLjQ2NWExLjI4MSwxLjI4MSwwLDEsMSwxLjYwOC0uNDYsMS4xODgsMS4xODgsMCwwLDEtMS42MDguNDZtMi4wODksMy42MTRhMS4zMjUsMS4zMjUsMCwwLDEtMS4xOTEtLjY2OWMwLS4yNS43MzEtLjQ1OSwxLjIxMS0uNDU5LjQ4MS0uMDIxLDEuMTUuMTQ2LDEuMTUuNC4wMi4yMjktLjU4NS43MzEtMS4xNy43MzFtMS4yMTItMi41NjlhMS4xNjgsMS4xNjgsMCwwLDEtMS4yMTIsMS4xMDcsMS4xNTQsMS4xNTQsMCwwLDEtMS4yMTItMS4xMDd2LS4wMjJhMS4xNjgsMS4xNjgsMCwwLDEsMS4yMTItMS4xMDcsMS4xODUsMS4xODUsMCwwLDEsMS4yMTIsMS4xMjltMS42OTIuODc3Yy0uNTIyLjcxLTEuMjEyLjczMS0xLjQ4My41NDMtLjI3Mi0uMjUtLjA2My0xLjA0NS4zMTMtMS40ODQuNDM5LS40OC45LS43OTMsMS4yMTEtLjU0MmExLjM1NiwxLjM1NiwwLDAsMS0uMDQxLDEuNDgzbS40NTktMS41Yy0uNDM4LjE4Ny0uNzk0LTIuMTUyLS4yNS0yLjAyNmExLjI2MiwxLjI2MiwwLDAsMSwuMjUsMi4wMjYiLz48cmVjdCBzdHlsZT0iZmlsbDojZWNmNmZkIiBoZWlnaHQ9IjIuODM1IiB3aWR0aD0iNC4yNTIiIHk9IjE3LjAwOSIgeD0iMTEuNDczIi8+PHBhdGggc3R5bGU9ImZpbGw6IzNjMyIgZD0iTTEyLjk0NiwxNy43OTNhLjcwOS43MDksMCwxLDEtLjcwOS43MDkuNzA4LjcwOCwwLDAsMSwuNzA5LS43MDkiLz48L3N2Zz4=;points=[[0.08,0.06,0,0,0],[0.08,0.11,0,0,0],[0.08,0.16,0,0,0],[0.08,0.21,0,0,0],[0.08,0.25,0,0,0],[0.08,0.3,0,0,0],[0.08,0.35,0,0,0],[0.08,0.4,0,0,0],[0.08,0.45,0,0,0],[0.08,0.5,0,0,0],[0.08,0.54,0,0,0],[0.08,0.59,0,0,0],[0.08,0.64,0,0,0],[0.08,0.68,0,0,0],[0.08,0.73,0,0,0],[0.08,0.78,0,0,0],[0.08,0.83,0,0,0],[0.08,0.88,0,0,0],[0.08,0.93,0,0,0],[0.08,0.97,0,0,0],[0.38,0.97,0,0,0],[0.49,0.97,0,0,0],[0.63,0.97,0,0,0],[0.92,0.06,0,0,0],[0.92,0.12,0,0,0],[0.92,0.16,0,0,0],[0.92,0.21,0,0,0],[0.92,0.25,0,0,0],[0.92,0.3,0,0,0],[0.92,0.35,0,0,0],[0.92,0.4,0,0,0],[0.92,0.44,0,0,0],[0.92,0.5,0,0,0],[0.92,0.54,0,0,0],[0.92,0.59,0,0,0],[0.92,0.64,0,0,0],[0.92,0.69,0,0,0],[0.92,0.74,0,0,0],[0.92,0.79,0,0,0],[0.92,0.84,0,0,0],[0.92,0.88,0,0,0],[0.92,0.92,0,0,0],[0.93,0.97,0,0,0]];rotation=90;" parent="1" vertex="1">
                    <mxGeometry x="-350" y="-360" width="380" height="950" as="geometry"/>
                </mxCell>
                <mxCell id="3" value="" style="pointerEvents=1;verticalLabelPosition=bottom;shadow=0;dashed=0;align=center;html=1;verticalAlign=top;shape=mxgraph.electrical.resistors.resistor_2;" parent="1" vertex="1">
                    <mxGeometry x="-420" y="-220" width="100" height="20" as="geometry"/>
                </mxCell>
                <mxCell id="4" value="" style="verticalLabelPosition=bottom;shadow=0;dashed=0;align=center;html=1;verticalAlign=top;shape=mxgraph.electrical.opto_electronics.led_2;pointerEvents=1;" parent="1" vertex="1">
                    <mxGeometry x="-170" y="-250" width="100" height="70" as="geometry"/>
                </mxCell>
                <mxCell id="5" style="edgeStyle=orthogonalEdgeStyle;html=1;exitX=0.08;exitY=0.83;exitDx=0;exitDy=0;exitPerimeter=0;entryX=0;entryY=0.5;entryDx=0;entryDy=0;entryPerimeter=0;rounded=0;" parent="1" source="2" target="3" edge="1">
                    <mxGeometry relative="1" as="geometry">
                        <Array as="points">
                            <mxPoint x="-473" y="-100"/>
                            <mxPoint x="-645" y="-100"/>
                            <mxPoint x="-645" y="-210"/>
                        </Array>
                    </mxGeometry>
                </mxCell>
                <mxCell id="6" style="edgeStyle=orthogonalEdgeStyle;html=1;exitX=1;exitY=0.5;exitDx=0;exitDy=0;exitPerimeter=0;entryX=0;entryY=0.57;entryDx=0;entryDy=0;entryPerimeter=0;rounded=0;" parent="1" source="3" target="4" edge="1">
                    <mxGeometry relative="1" as="geometry"/>
                </mxCell>
                <mxCell id="7" style="edgeStyle=orthogonalEdgeStyle;html=1;exitX=1;exitY=0.57;exitDx=0;exitDy=0;exitPerimeter=0;entryX=0.08;entryY=0.78;entryDx=0;entryDy=0;entryPerimeter=0;rounded=0;" parent="1" source="4" target="2" edge="1">
                    <mxGeometry relative="1" as="geometry">
                        <Array as="points">
                            <mxPoint x="10" y="-210"/>
                            <mxPoint x="10" y="-100"/>
                            <mxPoint x="-426" y="-100"/>
                        </Array>
                    </mxGeometry>
                </mxCell>
                <mxCell id="8" value="&lt;span style=&quot;font-size: 24px;&quot;&gt;Created by Michael Bruneau&lt;/span&gt;&lt;div&gt;&lt;span style=&quot;font-size: 24px;&quot;&gt;Created on Feb 2025&lt;/span&gt;&lt;/div&gt;&lt;div&gt;&lt;span style=&quot;font-size: 24px;&quot;&gt;Single LED flashes&lt;/span&gt;&lt;/div&gt;" style="text;html=1;align=center;verticalAlign=middle;resizable=0;points=[];autosize=1;strokeColor=none;fillColor=none;" parent="1" vertex="1">
                    <mxGeometry x="-770" y="-310" width="330" height="100" as="geometry"/>
                </mxCell>
            </root>
        </mxGraphModel>
    </diagram>
</mxfile>